<?xml version="1.0" encoding="UTF-8" standalone="no"?>
<svg
   height="1918.4969"
   viewBox="0 0 63.959438 1918.4969"
   width="63.959438"
   version="1.1"
   id="svg920"
   sodipodi:docname="hero-small.svg"
   inkscape:version="1.2.2 (b0a8486541, 2022-12-01)"
   xmlns:inkscape="http://www.inkscape.org/namespaces/inkscape"
   xmlns:sodipodi="http://sodipodi.sourceforge.net/DTD/sodipodi-0.dtd"
   xmlns="http://www.w3.org/2000/svg"
   xmlns:svg="http://www.w3.org/2000/svg">
  <defs
     id="defs924" />
  <sodipodi:namedview
     id="namedview922"
     pagecolor="#ffffff"
     bordercolor="#000000"
     borderopacity="0.25"
     inkscape:showpageshadow="2"
     inkscape:pageopacity="0.0"
     inkscape:pagecheckerboard="0"
     inkscape:deskcolor="#d1d1d1"
     showgrid="false"
     inkscape:zoom="0.4296875"
     inkscape:cx="-1323.0545"
     inkscape:cy="589.96364"
     inkscape:window-width="1920"
     inkscape:window-height="1000"
     inkscape:window-x="0"
     inkscape:window-y="0"
     inkscape:window-maximized="1"
     inkscape:current-layer="svg920" />
  <g
     fill="#c03a31"
     transform="matrix(-1,0,0,1,63.219085,9.335227e-5)"
     id="g854">
    <g
       transform="matrix(0,1.1137089,1.103716,0,6.128204,-2418.5701)"
       id="g642">
      <path
         d="m 2258.3674,25.560105 -26.0554,-25.97254299 -25.9726,26.05543399 26.0555,25.972543 z m -25.9725,13.052585 -13.0471,-12.980746 12.9863,-13.03048 13.025,12.986271 z"
         id="path562" />
      <path
         d="m 2225.862,25.615366 6.5108,6.493136 6.4931,-6.511372 -6.5113,-6.493136 z"
         id="path564" />
      <path
         d="m 2262.6723,8.2126567 -13.025,-12.9807454 h -13.0084 l 26.0555,25.9725427 25.9725,-26.0554338 h -13.0084 z"
         id="path566" />
      <path
         d="m 2184.6771,25.692731 -12.9863,13.024954 0.028,13.008376 25.9724,-26.055434 -26.0555,-25.97254353 V 12.706459 Z"
         id="path568" />
      <path
         d="m 2178.1731,25.703783 -6.5154,-6.493136 v 13.008376 z"
         id="path570" />
      <path
         d="m 2214.9654,-4.7073019 -12.9807,13.024954 -13.0305,-12.9807454 h -13.0028 l 26.0554,25.9730953 25.9728,-26.0559864 z"
         id="path572" />
      <path
         d="m 2256.146,-4.7620101 6.5158,6.4931358 6.4925,-6.51524 z"
         id="path574" />
      <path
         d="m 2195.4586,-4.6730403 6.5153,6.4931358 6.493,-6.5152401 z"
         id="path576" />
      <path
         d="M 2293.0933,51.509991 V 38.507694 l -13.025,-12.986824 12.9808,-13.024954 V -0.50693384 L 2267.076,25.5485 Z"
         id="path578" />
      <path
         d="m 2286.5449,25.509818 6.5152,6.493136 v -13.00285 z"
         id="path580" />
      <path
         d="m 2379.8423,25.560105 -26.0554,-25.97254299 -25.9726,26.05543399 26.0555,25.972543 z m -25.9725,13.052585 -13.0471,-12.980746 12.9863,-13.03048 13.025,12.986271 z"
         id="path582" />
      <path
         d="m 2347.3369,25.615366 6.5108,6.493136 6.4931,-6.511372 -6.5113,-6.493136 z"
         id="path584" />
      <path
         d="m 2384.1472,8.2126567 -13.025,-12.9807454 h -13.0084 l 26.0555,25.9725427 25.9725,-26.0554338 h -13.0084 z"
         id="path586" />
      <path
         d="m 2306.152,25.692731 -12.9863,13.024954 0.028,13.008376 25.9724,-26.055434 -26.0555,-25.97254353 V 12.706459 Z"
         id="path588" />
      <path
         d="m 2299.648,25.703783 -6.5154,-6.493136 v 13.008376 z"
         id="path590" />
      <path
         d="m 2336.4403,-4.7073019 -12.9807,13.024954 -13.0305,-12.9807454 h -13.0028 l 26.0554,25.9730953 25.9728,-26.0559864 z"
         id="path592" />
      <path
         d="m 2377.6209,-4.7620101 6.5158,6.4931358 6.4925,-6.51524 z"
         id="path594" />
      <path
         d="m 2316.9335,-4.6730403 6.5153,6.4931358 6.493,-6.5152401 z"
         id="path596" />
      <path
         d="M 2414.5682,51.509991 V 38.507694 L 2401.5432,25.52087 2414.524,12.495916 V -0.50693384 L 2388.5509,25.5485 Z"
         id="path598" />
      <path
         d="m 2408.0198,25.509818 6.5152,6.493136 v -13.00285 z"
         id="path600" />
      <path
         d="m 2500.4085,25.560105 -26.0554,-25.97254299 -25.9726,26.05543399 26.0555,25.972543 z m -25.9725,13.052585 -13.0471,-12.980746 12.9863,-13.03048 13.025,12.986271 z"
         id="path602" />
      <path
         d="m 2467.9031,25.615366 6.5108,6.493136 6.4931,-6.511372 -6.5113,-6.493136 z"
         id="path604" />
      <path
         d="m 2504.7134,8.2126567 -13.025,-12.9807454 H 2478.68 l 26.0555,25.9725427 25.9725,-26.0554338 h -13.0084 z"
         id="path606" />
      <path
         d="m 2426.7182,25.692731 -12.9863,13.024954 0.028,13.008376 25.9724,-26.055434 -26.0555,-25.97254353 V 12.706459 Z"
         id="path608" />
      <path
         d="m 2420.2142,25.703783 -6.5154,-6.493136 v 13.008376 z"
         id="path610" />
      <path
         d="m 2457.0065,-4.7073019 -12.9807,13.024954 -13.0305,-12.9807454 h -13.0028 l 26.0554,25.9730953 25.9728,-26.0559864 z"
         id="path612" />
      <path
         d="m 2498.1871,-4.7620101 6.5158,6.4931358 6.4925,-6.51524 z"
         id="path614" />
      <path
         d="m 2437.4997,-4.6730403 6.5153,6.4931358 6.493,-6.5152401 z"
         id="path616" />
      <path
         d="M 2535.1344,51.509991 V 38.507694 l -13.025,-12.986824 12.9808,-13.024954 V -0.50693384 L 2509.1171,25.5485 Z"
         id="path618" />
      <path
         d="m 2528.586,25.509818 6.5152,6.493136 v -13.00285 z"
         id="path620" />
      <path
         d="m 2621.8107,25.315925 -26.0554,-25.97254299 -25.9726,26.05543399 26.0555,25.972543 z m -25.9725,13.052585 -13.0471,-12.980746 12.9863,-13.03048 13.025,12.986271 z"
         id="path622" />
      <path
         d="m 2589.3053,25.371186 6.5108,6.493136 6.4931,-6.511372 -6.5113,-6.493136 z"
         id="path624" />
      <path
         d="m 2626.1156,7.9684767 -13.025,-12.9807454 h -13.0084 l 26.0555,25.9725427 25.9725,-26.0554338 h -13.0084 z"
         id="path626" />
      <path
         d="m 2548.1204,25.448551 -12.9863,13.024954 0.028,13.008376 25.9724,-26.055434 -26.0555,-25.97254353 V 12.462279 Z"
         id="path628" />
      <path
         d="m 2541.6164,25.459603 -6.5154,-6.493136 v 13.008376 z"
         id="path630" />
      <path
         d="m 2578.4087,-4.9514819 -12.9807,13.024954 -13.0305,-12.9807454 h -13.0028 l 26.0554,25.9730953 25.9728,-26.0559864 z"
         id="path632" />
      <path
         d="m 2619.5893,-5.0061901 6.5158,6.4931358 6.4925,-6.51524 z"
         id="path634" />
      <path
         d="m 2558.9019,-4.9172203 6.5153,6.4931358 6.493,-6.5152401 z"
         id="path636" />
      <path
         d="M 2656.5366,51.265811 V 38.263514 l -13.025,-12.986824 12.9808,-13.024954 V -0.75111384 L 2630.5193,25.30432 Z"
         id="path638" />
      <path
         d="m 2649.9882,25.265638 6.5152,6.493136 v -13.00285 z"
         id="path640" />
    </g>
    <g
       transform="matrix(0,1.1137089,1.103716,0,5.623619,-1878.6085)"
       id="g724">
      <path
         d="m 2258.3674,25.560105 -26.0554,-25.97254299 -25.9726,26.05543399 26.0555,25.972543 z m -25.9725,13.052585 -13.0471,-12.980746 12.9863,-13.03048 13.025,12.986271 z"
         id="path644" />
      <path
         d="m 2225.862,25.615366 6.5108,6.493136 6.4931,-6.511372 -6.5113,-6.493136 z"
         id="path646" />
      <path
         d="m 2262.6723,8.2126567 -13.025,-12.9807454 h -13.0084 l 26.0555,25.9725427 25.9725,-26.0554338 h -13.0084 z"
         id="path648" />
      <path
         d="m 2184.6771,25.692731 -12.9863,13.024954 0.028,13.008376 25.9724,-26.055434 -26.0555,-25.97254353 V 12.706459 Z"
         id="path650" />
      <path
         d="m 2178.1731,25.703783 -6.5154,-6.493136 v 13.008376 z"
         id="path652" />
      <path
         d="m 2214.9654,-4.7073019 -12.9807,13.024954 -13.0305,-12.9807454 h -13.0028 l 26.0554,25.9730953 25.9728,-26.0559864 z"
         id="path654" />
      <path
         d="m 2256.146,-4.7620101 6.5158,6.4931358 6.4925,-6.51524 z"
         id="path656" />
      <path
         d="m 2195.4586,-4.6730403 6.5153,6.4931358 6.493,-6.5152401 z"
         id="path658" />
      <path
         d="M 2293.0933,51.509991 V 38.507694 l -13.025,-12.986824 12.9808,-13.024954 V -0.50693384 L 2267.076,25.5485 Z"
         id="path660" />
      <path
         d="m 2286.5449,25.509818 6.5152,6.493136 v -13.00285 z"
         id="path662" />
      <path
         d="m 2379.8423,25.560105 -26.0554,-25.97254299 -25.9726,26.05543399 26.0555,25.972543 z m -25.9725,13.052585 -13.0471,-12.980746 12.9863,-13.03048 13.025,12.986271 z"
         id="path664" />
      <path
         d="m 2347.3369,25.615366 6.5108,6.493136 6.4931,-6.511372 -6.5113,-6.493136 z"
         id="path666" />
      <path
         d="m 2384.1472,8.2126567 -13.025,-12.9807454 h -13.0084 l 26.0555,25.9725427 25.9725,-26.0554338 h -13.0084 z"
         id="path668" />
      <path
         d="m 2306.152,25.692731 -12.9863,13.024954 0.028,13.008376 25.9724,-26.055434 -26.0555,-25.97254353 V 12.706459 Z"
         id="path670" />
      <path
         d="m 2299.648,25.703783 -6.5154,-6.493136 v 13.008376 z"
         id="path672" />
      <path
         d="m 2336.4403,-4.7073019 -12.9807,13.024954 -13.0305,-12.9807454 h -13.0028 l 26.0554,25.9730953 25.9728,-26.0559864 z"
         id="path674" />
      <path
         d="m 2377.6209,-4.7620101 6.5158,6.4931358 6.4925,-6.51524 z"
         id="path676" />
      <path
         d="m 2316.9335,-4.6730403 6.5153,6.4931358 6.493,-6.5152401 z"
         id="path678" />
      <path
         d="M 2414.5682,51.509991 V 38.507694 L 2401.5432,25.52087 2414.524,12.495916 V -0.50693384 L 2388.5509,25.5485 Z"
         id="path680" />
      <path
         d="m 2408.0198,25.509818 6.5152,6.493136 v -13.00285 z"
         id="path682" />
      <path
         d="m 2500.4085,25.560105 -26.0554,-25.97254299 -25.9726,26.05543399 26.0555,25.972543 z m -25.9725,13.052585 -13.0471,-12.980746 12.9863,-13.03048 13.025,12.986271 z"
         id="path684" />
      <path
         d="m 2467.9031,25.615366 6.5108,6.493136 6.4931,-6.511372 -6.5113,-6.493136 z"
         id="path686" />
      <path
         d="m 2504.7134,8.2126567 -13.025,-12.9807454 H 2478.68 l 26.0555,25.9725427 25.9725,-26.0554338 h -13.0084 z"
         id="path688" />
      <path
         d="m 2426.7182,25.692731 -12.9863,13.024954 0.028,13.008376 25.9724,-26.055434 -26.0555,-25.97254353 V 12.706459 Z"
         id="path690" />
      <path
         d="m 2420.2142,25.703783 -6.5154,-6.493136 v 13.008376 z"
         id="path692" />
      <path
         d="m 2457.0065,-4.7073019 -12.9807,13.024954 -13.0305,-12.9807454 h -13.0028 l 26.0554,25.9730953 25.9728,-26.0559864 z"
         id="path694" />
      <path
         d="m 2498.1871,-4.7620101 6.5158,6.4931358 6.4925,-6.51524 z"
         id="path696" />
      <path
         d="m 2437.4997,-4.6730403 6.5153,6.4931358 6.493,-6.5152401 z"
         id="path698" />
      <path
         d="M 2535.1344,51.509991 V 38.507694 l -13.025,-12.986824 12.9808,-13.024954 V -0.50693384 L 2509.1171,25.5485 Z"
         id="path700" />
      <path
         d="m 2528.586,25.509818 6.5152,6.493136 v -13.00285 z"
         id="path702" />
      <path
         d="m 2621.8107,25.315925 -26.0554,-25.97254299 -25.9726,26.05543399 26.0555,25.972543 z m -25.9725,13.052585 -13.0471,-12.980746 12.9863,-13.03048 13.025,12.986271 z"
         id="path704" />
      <path
         d="m 2589.3053,25.371186 6.5108,6.493136 6.4931,-6.511372 -6.5113,-6.493136 z"
         id="path706" />
      <path
         d="m 2626.1156,7.9684767 -13.025,-12.9807454 h -13.0084 l 26.0555,25.9725427 25.9725,-26.0554338 h -13.0084 z"
         id="path708" />
      <path
         d="m 2548.1204,25.448551 -12.9863,13.024954 0.028,13.008376 25.9724,-26.055434 -26.0555,-25.97254353 V 12.462279 Z"
         id="path710" />
      <path
         d="m 2541.6164,25.459603 -6.5154,-6.493136 v 13.008376 z"
         id="path712" />
      <path
         d="m 2578.4087,-4.9514819 -12.9807,13.024954 -13.0305,-12.9807454 h -13.0028 l 26.0554,25.9730953 25.9728,-26.0559864 z"
         id="path714" />
      <path
         d="m 2619.5893,-5.0061901 6.5158,6.4931358 6.4925,-6.51524 z"
         id="path716" />
      <path
         d="m 2558.9019,-4.9172203 6.5153,6.4931358 6.493,-6.5152401 z"
         id="path718" />
      <path
         d="M 2656.5366,51.265811 V 38.263514 l -13.025,-12.986824 12.9808,-13.024954 V -0.75111384 L 2630.5193,25.30432 Z"
         id="path720" />
      <path
         d="m 2649.9882,25.265638 6.5152,6.493136 v -13.00285 z"
         id="path722" />
    </g>
    <g
       transform="matrix(0,1.1137089,1.103716,0,5.118684,-1338.6315)"
       id="g806">
      <path
         d="m 2258.3674,25.560105 -26.0554,-25.97254299 -25.9726,26.05543399 26.0555,25.972543 z m -25.9725,13.052585 -13.0471,-12.980746 12.9863,-13.03048 13.025,12.986271 z"
         id="path726" />
      <path
         d="m 2225.862,25.615366 6.5108,6.493136 6.4931,-6.511372 -6.5113,-6.493136 z"
         id="path728" />
      <path
         d="m 2262.6723,8.2126567 -13.025,-12.9807454 h -13.0084 l 26.0555,25.9725427 25.9725,-26.0554338 h -13.0084 z"
         id="path730" />
      <path
         d="m 2184.6771,25.692731 -12.9863,13.024954 0.028,13.008376 25.9724,-26.055434 -26.0555,-25.97254353 V 12.706459 Z"
         id="path732" />
      <path
         d="m 2178.1731,25.703783 -6.5154,-6.493136 v 13.008376 z"
         id="path734" />
      <path
         d="m 2214.9654,-4.7073019 -12.9807,13.024954 -13.0305,-12.9807454 h -13.0028 l 26.0554,25.9730953 25.9728,-26.0559864 z"
         id="path736" />
      <path
         d="m 2256.146,-4.7620101 6.5158,6.4931358 6.4925,-6.51524 z"
         id="path738" />
      <path
         d="m 2195.4586,-4.6730403 6.5153,6.4931358 6.493,-6.5152401 z"
         id="path740" />
      <path
         d="M 2293.0933,51.509991 V 38.507694 l -13.025,-12.986824 12.9808,-13.024954 V -0.50693384 L 2267.076,25.5485 Z"
         id="path742" />
      <path
         d="m 2286.5449,25.509818 6.5152,6.493136 v -13.00285 z"
         id="path744" />
      <path
         d="m 2379.8423,25.560105 -26.0554,-25.97254299 -25.9726,26.05543399 26.0555,25.972543 z m -25.9725,13.052585 -13.0471,-12.980746 12.9863,-13.03048 13.025,12.986271 z"
         id="path746" />
      <path
         d="m 2347.3369,25.615366 6.5108,6.493136 6.4931,-6.511372 -6.5113,-6.493136 z"
         id="path748" />
      <path
         d="m 2384.1472,8.2126567 -13.025,-12.9807454 h -13.0084 l 26.0555,25.9725427 25.9725,-26.0554338 h -13.0084 z"
         id="path750" />
      <path
         d="m 2306.152,25.692731 -12.9863,13.024954 0.028,13.008376 25.9724,-26.055434 -26.0555,-25.97254353 V 12.706459 Z"
         id="path752" />
      <path
         d="m 2299.648,25.703783 -6.5154,-6.493136 v 13.008376 z"
         id="path754" />
      <path
         d="m 2336.4403,-4.7073019 -12.9807,13.024954 -13.0305,-12.9807454 h -13.0028 l 26.0554,25.9730953 25.9728,-26.0559864 z"
         id="path756" />
      <path
         d="m 2377.6209,-4.7620101 6.5158,6.4931358 6.4925,-6.51524 z"
         id="path758" />
      <path
         d="m 2316.9335,-4.6730403 6.5153,6.4931358 6.493,-6.5152401 z"
         id="path760" />
      <path
         d="M 2414.5682,51.509991 V 38.507694 L 2401.5432,25.52087 2414.524,12.495916 V -0.50693384 L 2388.5509,25.5485 Z"
         id="path762" />
      <path
         d="m 2408.0198,25.509818 6.5152,6.493136 v -13.00285 z"
         id="path764" />
      <path
         d="m 2500.4085,25.560105 -26.0554,-25.97254299 -25.9726,26.05543399 26.0555,25.972543 z m -25.9725,13.052585 -13.0471,-12.980746 12.9863,-13.03048 13.025,12.986271 z"
         id="path766" />
      <path
         d="m 2467.9031,25.615366 6.5108,6.493136 6.4931,-6.511372 -6.5113,-6.493136 z"
         id="path768" />
      <path
         d="m 2504.7134,8.2126567 -13.025,-12.9807454 H 2478.68 l 26.0555,25.9725427 25.9725,-26.0554338 h -13.0084 z"
         id="path770" />
      <path
         d="m 2426.7182,25.692731 -12.9863,13.024954 0.028,13.008376 25.9724,-26.055434 -26.0555,-25.97254353 V 12.706459 Z"
         id="path772" />
      <path
         d="m 2420.2142,25.703783 -6.5154,-6.493136 v 13.008376 z"
         id="path774" />
      <path
         d="m 2457.0065,-4.7073019 -12.9807,13.024954 -13.0305,-12.9807454 h -13.0028 l 26.0554,25.9730953 25.9728,-26.0559864 z"
         id="path776" />
      <path
         d="m 2498.1871,-4.7620101 6.5158,6.4931358 6.4925,-6.51524 z"
         id="path778" />
      <path
         d="m 2437.4997,-4.6730403 6.5153,6.4931358 6.493,-6.5152401 z"
         id="path780" />
      <path
         d="M 2535.1344,51.509991 V 38.507694 l -13.025,-12.986824 12.9808,-13.024954 V -0.50693384 L 2509.1171,25.5485 Z"
         id="path782" />
      <path
         d="m 2528.586,25.509818 6.5152,6.493136 v -13.00285 z"
         id="path784" />
      <path
         d="m 2621.8107,25.315925 -26.0554,-25.97254299 -25.9726,26.05543399 26.0555,25.972543 z m -25.9725,13.052585 -13.0471,-12.980746 12.9863,-13.03048 13.025,12.986271 z"
         id="path786" />
      <path
         d="m 2589.3053,25.371186 6.5108,6.493136 6.4931,-6.511372 -6.5113,-6.493136 z"
         id="path788" />
      <path
         d="m 2626.1156,7.9684767 -13.025,-12.9807454 h -13.0084 l 26.0555,25.9725427 25.9725,-26.0554338 h -13.0084 z"
         id="path790" />
      <path
         d="m 2548.1204,25.448551 -12.9863,13.024954 0.028,13.008376 25.9724,-26.055434 -26.0555,-25.97254353 V 12.462279 Z"
         id="path792" />
      <path
         d="m 2541.6164,25.459603 -6.5154,-6.493136 v 13.008376 z"
         id="path794" />
      <path
         d="m 2578.4087,-4.9514819 -12.9807,13.024954 -13.0305,-12.9807454 h -13.0028 l 26.0554,25.9730953 25.9728,-26.0559864 z"
         id="path796" />
      <path
         d="m 2619.5893,-5.0061901 6.5158,6.4931358 6.4925,-6.51524 z"
         id="path798" />
      <path
         d="m 2558.9019,-4.9172203 6.5153,6.4931358 6.493,-6.5152401 z"
         id="path800" />
      <path
         d="M 2656.5366,51.265811 V 38.263514 l -13.025,-12.986824 12.9808,-13.024954 V -0.75111384 L 2630.5193,25.30432 Z"
         id="path802" />
      <path
         d="m 2649.9882,25.265638 6.5152,6.493136 v -13.00285 z"
         id="path804" />
    </g>
    <g
       stroke-width="1.1087"
       id="g852">
      <path
         d="m 32.824847,1716.5093 -28.6663116,-29.0181 28.7577996,-28.9259 28.666311,29.0182 z m 14.406347,-28.9258 -14.327057,-14.5306 -14.38195,14.4629 14.333155,14.5061 z"
         id="path808" />
      <path
         d="m 32.885839,1680.3078 7.166578,7.2511 -7.186705,7.2314 -7.166578,-7.2516 z"
         id="path810" />
      <path
         d="m 13.67819,1721.3037 -14.32705599,-14.506 v -14.4876 l 28.66631099,29.0183 -28.75779922,28.9258 v -14.4876 z"
         id="path812" />
      <path
         d="m 32.971228,1634.4398 14.37585,-14.463 14.357553,0.031 -28.757799,28.9257 -28.6663123,-29.0182 H 18.638072 Z"
         id="path814" />
      <path
         d="M 32.983426,1627.1962 25.816848,1619.94 H 40.174401 Z"
         id="path816" />
      <path
         d="M -0.58177462,1668.1721 13.794076,1653.7154 -0.53298088,1639.2032 v -14.4813 L 28.13394,1653.74 -0.62446912,1682.6662 Z"
         id="path818" />
      <path
         d="m -0.64215694,1714.0353 7.16657784,7.2568 -7.1909746,7.2307 z"
         id="path820" />
      <path
         d="m -0.54395955,1646.4473 7.16657785,7.2561 -7.19097472,7.2313 z"
         id="path822" />
      <path
         d="M 61.466151,1755.1839 H 47.115308 l -14.333766,-14.5061 -14.37585,14.4569 H 4.0542388 l 28.7577992,-28.9265 z"
         id="path824" />
      <path
         d="m 32.769344,1747.8909 7.166578,7.256 H 25.584469 Z"
         id="path826" />
      <path
         d="m 32.824847,1851.797 -28.6663116,-29.0181 28.7577996,-28.9259 28.666311,29.0182 z m 14.406347,-28.9258 -14.327057,-14.5307 -14.38195,14.463 14.333155,14.5061 z"
         id="path828" />
      <path
         d="m 32.885839,1815.5955 7.166578,7.2511 -7.186705,7.2314 -7.166578,-7.2517 z"
         id="path830" />
      <path
         d="m 13.67819,1856.5914 -14.32705599,-14.506 v -14.4876 l 28.66631099,29.0182 -28.75779922,28.9258 v -14.4875 z"
         id="path832" />
      <path
         d="m 32.971228,1769.7275 14.37585,-14.463 14.357553,0.031 -28.757799,28.9257 L 4.2805197,1755.203 H 18.638072 Z"
         id="path834" />
      <path
         d="m 32.983426,1762.4839 -7.166578,-7.2562 h 14.357553 z"
         id="path836" />
      <path
         d="M -0.58177462,1803.4598 13.794076,1789.0031 -0.53298088,1774.4909 v -14.4813 l 28.66692088,29.0181 -28.75840912,28.9262 z"
         id="path838" />
      <path
         d="m -0.64215694,1849.323 7.16657784,7.2567 -7.1909746,7.2308 z"
         id="path840" />
      <path
         d="m -0.54395955,1781.7349 7.16657785,7.2562 -7.19097472,7.2313 z"
         id="path842" />
      <path
         d="M 61.466151,1890.4716 H 47.115308 l -14.333766,-14.5061 -14.37585,14.4568 H 4.0542388 l 28.7577992,-28.9264 z"
         id="path844" />
      <path
         d="m 32.769344,1883.1786 7.166578,7.256 H 25.584469 Z"
         id="path846" />
      <path
         d="m 32.971228,1904.0031 14.37585,-14.4629 14.357553,0.031 -28.757799,28.9256 -28.6663123,-29.0182 H 18.638072 Z"
         id="path848" />
      <path
         d="m 32.983426,1896.7596 -7.166578,-7.2563 h 14.357553 z"
         id="path850" />
    </g>
  </g>
</svg>
