<svg clip-rule="evenodd" fill-rule="evenodd" height="1000" stroke-linejoin="round" stroke-miterlimit="1.41421" viewBox="0 0 999.99999 1000" width="1000" xmlns="http://www.w3.org/2000/svg"><g clip-rule="evenodd" fill-rule="evenodd" stroke-linejoin="round" stroke-miterlimit="1.41421"><g transform="matrix(5.6448023 0 0 5.6448023 2917.181 1546.603)"><g fill="#c03a31"><path d="m-371.8612-201.64629a56.352377 56.352377 0 0 1 -56.35238 56.35237 56.352377 56.352377 0 0 1 -56.35237-56.35237 56.352377 56.352377 0 0 1 56.35237-56.35238 56.352377 56.352377 0 0 1 56.35238 56.35238zm-1.06063-5.44205 8.78809 5.44205-8.78809 5.44205 7.55069 7.05825-9.67196 3.62383 6.0355 8.39666-10.21489 1.66671 4.29303 9.41942-10.34116-.36617 2.3738 10.076-10.076-2.37379.36617 10.34116-9.41942-4.29304-1.66671 10.2149-8.39667-6.0355-3.62382 9.67195-7.05826-7.55069-5.44205 8.78809-5.44205-8.78809-7.05825 7.55069-3.62383-9.67195-8.39666 6.0355-1.66671-10.2149-9.41942 4.29304.36617-10.34116-10.076 2.37379 2.37379-10.076-10.34116.36617 4.29304-9.41942-10.2149-1.66671 6.0355-8.39666-9.67195-3.62383 7.55069-7.05825-8.78809-5.44205 8.78809-5.44205-7.55069-7.05826 9.67195-3.62382-6.0355-8.39667 10.2149-1.66671-4.29304-9.41942 10.34116.36617-2.37379-10.076 10.076 2.3738-.36617-10.34116 9.41942 4.29303 1.66671-10.21489 8.39666 6.03549 3.62383-9.67195 7.05825 7.55069 5.44205-8.78809 5.44205 8.78809 7.05826-7.55069 3.62382 9.67195 8.39667-6.03549 1.66671 10.21489 9.41942-4.29303-.36617 10.34116 10.076-2.3738-2.3738 10.076 10.34116-.36617-4.29303 9.41942 10.21489 1.66671-6.0355 8.39667 9.67196 3.62382z" fill-rule="evenodd" stroke="#c03a31" stroke-linecap="round" stroke-linejoin="round" stroke-width="3.78797"/><path d="m-428.21289-261.33203c-32.90478 0-59.68555 26.79339-59.68555 59.68555 0 32.89213 26.7934 59.68554 59.68555 59.68554s59.68555-26.79341 59.68555-59.68554c0-32.89216-26.7934-59.68555-59.68555-59.68555zm-.0898 5.30273c2.12304.0543 3.81561 1.79715 3.81445 3.92774-.038 5.19752-7.81551 5.19752-7.85352 0-.001-2.21368 1.8263-3.99099 4.03907-3.92774zm-8.875 6.46485 6.04687 6.33984c1.36366 1.4268 3.62398 1.48958 5.05078.11328l6.76758-6.45312c13.95267 2.61311 26.05062 11.22911 33.08203 23.56054l-4.63281 10.45508c-.79547 1.8056.0235 3.92823 1.8164 4.73633l8.91602 3.95117c.2761 2.78676.57521 5.63041.0996 8.38477-1.51694 8.78496-4.73813 17.4093-9.26758 25.08789-1.15832 1.96365-2.85874 3.55954-4.46875 5.17773l-8.29687-1.78125c-1.93187-.41668-3.83723.82204-4.25391 2.75391l-1.9707 9.1914c-12.81733 5.80613-27.52886 5.73696-40.29102-.18945l-1.9707-9.1914c-.41667-1.93187-2.31033-3.17059-4.24219-2.75391l-8.11914 1.74414c-1.50646-1.55464-3.00708-3.14199-4.19141-4.95117-3.14108-4.79833-6.05417-9.91528-7.58789-15.44141-1.65037-5.94644-2.23811-12.2547-1.5664-18.44726l8.45898-3.76368c1.8056-.80808 2.62647-2.91705 1.81836-4.72265l-1.74219-3.92578s.49109-10.61994 3.50977-14.6211c6.23183-8.26008 16.59109-13.28096 27.03516-15.2539zm-37.94336 29.0664c2.12429.0619 3.81388 1.80254 3.8125 3.92774-.0377 5.19788-7.81587 5.19788-7.85352 0-.001-2.21447 1.82749-3.99212 4.04102-3.92774zm93.625.17774c2.12429.0608 3.81473 1.80061 3.81445 3.92578-.0376 5.19788-7.81587 5.19788-7.85352 0-.00029-2.21291 1.82707-3.98901 4.03907-3.92578zm-75.88477 55.11523c2.12354.0619 3.81282 1.80135 3.8125 3.92578-.0377 5.19789-7.81587 5.19789-7.85352 0-.00032-2.21369 1.82826-3.99013 4.04102-3.92578zm58.14453.17578c2.12506.0609 3.8158 1.80181 3.81445 3.92774-.0385 5.19697-7.81497 5.19697-7.85351 0-.001-2.21367 1.82629-3.99099 4.03906-3.92774z" stroke-width="1.26266"/><path d="m-442.63342-227.2593s-2.55285 4.90345-3.26985 6.80917c0 0-3.35322 30.10312 0 44.57976.61256 2.64456 3.58057 7.31437 3.58057 7.31437s.1117-.21402.17624-.31745l-.2583-.28406c-.10196-.0993-.10354-.26184-.004-.36342l.77778-.79313c.0506-.0515.1175-.0775.18448-.0775.0651 0 .13042.0241.18062.0731l.29031.25116c.3832-.24987.80131-.42522 1.23367-.52553l.019-.38327c-.001-.14203.11289-.25837.25535-.25986l1.11278-.0132c.00049-.00002.00049 0 .003 0 .14116.00002.25531.11356.2578.25455l.0277.38228c.43451.0905.85651.25632 1.24529.49747l.285-.25744c.0506-.0515.1175-.0775.18448-.0775.0651 0 .12989.0246.18012.0735l.79574.77524c.1017.0993.10354.26233.004.3639l-.25148.28939c.25072.38192.42661.79868.52726 1.22962 0 0-.10775.0898-.17577.15776-.12843.12818-.20067.29749-.20391.47811l-.007.11421-.004.0561c-.18303.0518-.36255.11395-.53791.18582.0142-.35196-.0367-.70609-.15343-1.04235-.0432-.12449-.0952-.24629-.15634-.36487-.13626-.26454-.31724-.51235-.5423-.73169-.22506-.21931-.47732-.39332-.74573-.5231-.0332-.0161-.0668-.0317-.10051-.0465l-.41266 2.06148c.12027.16255.17898.35655.17526.54972l.27529.2681-.87343.87202-.26604-.25938c-.0132.00049-.025.00097-.0374.00097-.17182 0-.34381-.0486-.49328-.14614l-1.31522.29229c.35651.56837.70844 1.13069 1.08121 1.68983.23816.0627.48222.0958.72679.0958.0328 0 .0659-.00074.0985-.001-.0763.18186-.14177.36824-.19613.55844-.001.004-.001.009-.004.0136l-.15586.009c.0852.12448.17149.24657.25733.3702l.20488-.0132c.0295-.13373.0645-.26523.10538-.39438.0647-.2049.14368-.40368.23498-.59523.036-.0754.0738-.14952.11369-.2226.0451-.0827.0923-.16426.14224-.24389.007-.0119.0144-.0233.0219-.0349l-.30779-.34599c-.0274-.0273-.0487-.0584-.0636-.0914-.0383-.0843-.0369-.18191.004-.26519.0146-.0295.0341-.0572.0588-.0818l.066-.0663.87343-.87152.009-.009c.048-.0478.10736-.0764.16943-.0867.0169-.003.0341-.004.051-.004.0796 0 .15917.03.21992.0905l.34763.30633c.0119-.008.025-.0154.0374-.0232.009-.005.0182-.0119.0277-.017.0801-.0493.16149-.0959.24469-.14034.0736-.0393.14833-.0768.2243-.11224.18737-.0873.38169-.16276.58164-.22502.12409-.0386.25037-.0723.37867-.10064l.0277-.46165c-.00016-.17134.13883-.31007.31071-.3102l.32819-.00049h.19373.19323l.62726-.00049c.17177 0 .31122.13847.31122.30972l.0286.46165c.53944.11829 1.0437.32929 1.49534.61602l.34714-.3068c.0609-.0607.14064-.091.22041-.091.0796 0 .15921.03.21993.0905l.94965.94509c.12132.12106.12145.31767 0 .43891l-.30732.34649c.28844.44966.50133.95202.62094 1.48949l.46271.0275c.17176 0 .31109.13895.31118.3102l.003 1.33754c.00013.17134-.13882.31054-.31072.31067l-.46511.0281c-.11869.53769-.33052 1.04029-.61804 1.49047l.30779.34599c.12132.12106.12145.31766 0 .43891l-.94817.94653c-.0607.0607-.14066.0914-.22041.0914-.0796 0-.15918-.0306-.21994-.091l-.34761-.30631c-.45114.28749-.95515.49973-1.49439.61892l-.0277.46117c.00017.17133-.13883.31056-.31073.31068h-.28837c1.24321 1.21302 2.46178 2.15292 3.59511 2.68621l.009-.009c-.19358-.30298-.33616-.64129-.41606-1.00316l-.31363-.0188c-.11566-.00009-.20935-.0938-.20924-.20906l.003-.90057c.00008-.11527.0937-.20856.20925-.20856l.31169-.0184c.0805-.36173.22392-.70004.41803-1.00268l-.20731-.23324c-.0817-.0815-.0817-.21372 0-.2952l.63939-.63586c.0408-.0407.0947-.061.14808-.061.0536 0 .10723.0202.14809.061l.23402.20663c.30395-.19297.64338-.33511 1.00643-.41471l.019-.31067c0-.11527.0942-.20857.20973-.20857l.42191.00049h.13015.13015l.22091.00048c.11566.0001.20934.0933.20925.20857l.019.31067c.0864.0191.17137.0418.25489.0677.13458.0419.26518.0927.3913.15147.0511.0238.10143.049.15099.0755.056.0299.11065.0613.16458.0943.007.004.0132.008.019.0119.008.005.017.0105.0253.0159l.2335-.20614c.0408-.0407.0946-.0615.14808-.0615.0118 0 .0227.001.034.004.0417.007.0823.0259.1146.0581l.005.005.58747.587.0446.0445c.0166.0166.0295.0353.0393.0552.0278.056.0288.12185.003.17856-.0105.0223-.0242.0432-.0427.0615l-.2073.23276c.005.008.0105.0154.015.0232.0336.0536.0653.10829.0956.16405.0267.0491.0526.0993.0767.15001.0614.12897.11421.26279.15777.40069.0274.0869.051.17518.0709.26518l.31169.0194c.11566.00009.20935.0937.20925.20905v.19793.1321.13015.0784c.36502-.30512.73315-.63508 1.1045-.99347l-.11645-.10552c-.24812.1539-.5159.26243-.79235.3252-.0202-.0345-.0452-.0668-.0743-.0958-.0864-.0863-.2004-.13498-.32239-.13743l-.115-.007c-.003-.003-.003-.007-.003-.009-.0366-.12804-.0808-.25312-.13208-.37552.0221.00074.044.00099.066.00099.19747 0 .39538-.0302.58549-.091.0847-.027.16761-.0601.24858-.0992.18066-.0873.35054-.20469.50202-.3523.15133-.14762.27338-.31459.36509-.49262.009-.0177.0178-.0353.0262-.0532l-1.39533-.31019c-.10064.0656-.21658.0983-.33207.0983-.008 0-.0167-.00011-.0253-.00048l-.17914.17469-.58747-.587.18497-.18049c-.003-.13002.0371-.26032.11803-.36972l-.27772-1.38738c-.0226.0105-.0456.0202-.068.0309-.18063.0873-.35019.20469-.5015.35229-.15147.14762-.27338.31411-.3651.49215-.0411.0798-.0757.16206-.10486.24583-.0785.2263-.11342.46431-.1038.70119-.11803-.0483-.23851-.09-.36171-.12488l-.003-.0377-.004-.0769c-.003-.12158-.051-.2355-.13739-.3218-.0457-.0457-.11842-.10591-.11842-.10591.0677-.29003.18619-.57043.35492-.82749l-.16946-.19502c-.067-.0684-.0655-.17803.003-.24486l.53551-.52166c.0337-.0329.0776-.0494.12132-.0494.0451 0 .0898.0175.12383.0523l.19178.17277c.26165-.16231.54603-.27393.83844-.33487l.0184-.25697c.003-.0949.0788-.1713.17381-.1713h.003l.74864.008c.0959.00098.17296.0796.17187.17518l.0132.25793c.29099.0676.5723.18556.83022.35373l.19566-.16888c.0337-.0329.0776-.0494.12132-.0494.0449 0 .0902.0171.12436.0518l.52335.53376c.067.0684.0659.17802-.003.24486l-.1738.19116c.16284.2608.2748.54375.33595.83523l.2588.0188c.0959.00098.17296.079.17187.17469l-.009.74669c-.003.095-.0784.17081-.17334.17081-.003 0-.003.00001-.003 0l-.25827.0132c-.0677.29004-.1862.57044-.35491.82751l.0855.0983s9.50935-11.45789 11.50389-18.4154c4.09503-14.28453 3.77306-30.20682 0-44.57976-1.37861-5.2516-8.00057-14.18839-8.00057-14.18839s-.17638.49397-.32382.71861l.16896.19502c.0671.0684.0661.17802-.003.24486l-.53551.52214c-.0337.0329-.0776.0489-.12133.0489-.045 0-.0902-.0171-.12422-.0518l-.19176-.17324c-.2481.15389-.51638.26195-.79283.3247-.0202-.0345-.0448-.0664-.0738-.0954-.0864-.0863-.20088-.13497-.32286-.13742l-.11513-.008c-.003-.003-.003-.005-.003-.009-.0366-.12804-.0811-.2536-.13253-.37599.0221.00073.0444.001.0665.001.19762 0 .39492-.0302.58503-.091.0847-.0271.16812-.0606.24908-.0997.18065-.0873.35051-.20468.502-.35229.15147-.14763.2729-.31411.3646-.49214.009-.0177.0178-.0354.0262-.0532l-1.39533-.3102c-.10064.0656-.21597.0983-.3316.0983-.008 0-.0173-.00012-.0257-.00049l-.17868.1742-.58792-.5865.18546-.1805c-.003-.13002.0366-.2608.1175-.37019l-.27771-1.38691c-.0227.0105-.0451.0202-.0675.031-.18064.0873-.35054.20468-.50199.3523-.15149.1476-.2729.3141-.36462.49213-.0411.0798-.0763.16207-.10539.24584-.0785.2263-.11302.46431-.1034.70118-.11803-.0483-.23899-.09-.36218-.12488l-.003-.0378-.004-.0769c-.003-.12159-.051-.23551-.1374-.32181-.0457-.0457-.11842-.10604-.11842-.10604.0677-.29003.18619-.57043.35492-.82749l-.16896-.19503c-.067-.0684-.0661-.17802.003-.24486l.53551-.52167c.0337-.0329.0776-.0494.12132-.0494.0451 0 .0902.0171.12436.0518l.19177.17323c.26165-.1623.54555-.27392.83798-.33487l.019-.25744c.001-.0584.0323-.1071.0767-.13792-1.01596-1.11884-2.02888-2.08647-3.00623-2.83139l-.2437.26761c.24199.3875.40823.80816.49908 1.24125l.38354.0275c.14248.001.2565.11829.25488.26034l-.0119 1.10865c-.003.14105-.11711.25455-.2583.25455-.003 0-.003.00001-.003 0l-.38403.0188c-.10064.43093-.27659.84766-.52725 1.22963l.25149.28986c.0997.10156.0979.26412-.004.36343l-.79574.77522c-.0502.0489-.11513.0735-.18011.0735-.0671 0-.13399-.0258-.18451-.0774l-.28497-.25744c-.36863.22865-.76705.38968-1.17781.48293-.0299-.0512-.067-.0992-.11026-.14227-.12844-.12817-.29798-.20008-.47918-.20372l-.1709-.0105c-.003-.004-.003-.009-.004-.0136-.0544-.19018-.11987-.37611-.19615-.55796.0327.001.0659.001.0985.001.29361 0 .58705-.0452.86954-.1355.1258-.0402.24972-.0894.36994-.14759.26842-.12976.52073-.30379.74572-.52312.22509-.21933.40557-.46714.54182-.73167.0134-.0262.0267-.0523.0394-.0789l-2.07357-.46118c-.14947.0975-.32143.14614-.49325.14614-.0119 0-.0248-.00041-.0374-.00097l-.26606.25937-.87341-.87201.27526-.26809c-.004-.1932.0551-.38718.17528-.54973l-.41269-2.06148c-.0337.0147-.0672.0304-.10051.0465-.26842.12976-.52067.30427-.74573.52359s-.40602.46666-.5423.7312c-.0611.11855-.11315.2404-.15632.36488-.11671.33625-.16759.69038-.15343 1.04234-.17537-.0719-.3549-.13405-.53794-.18582l-.004-.0561-.007-.11421c-.003-.18061-.075-.34989-.20342-.4781-.068-.0678-.17624-.15776-.17624-.15776.10064-.43093.27654-.84767.52726-1.22962l-.25149-.28939c-.0566-.0578-.0772-.13506-.0685-.20953-1.18811.83499-2.4346 2.03633-3.68447 3.44354.44717-.28113.94486-.4891 1.4774-.60587l.0286-.46165c0-.17123.13947-.30971.31123-.30971l.62725.00049h.19322.19372l.3282.00049c.17188.00013.31087.13887.31071.31019l.0277.46165c.12831.0283.25458.062.37867.10065.19996.0623.39427.13767.58165.22502.0759.0354.15062.073.22429.11223.0833.0444.16463.0912.24469.14033.009.005.0184.0119.0277.017.0118.008.025.0158.0374.0237l.34761-.30633c.0607-.0605.14034-.091.21993-.091.0169 0 .0341.001.051.004.062.0105.12146.0389.16944.0867l.009.009.8734.87153.066.0663c.0246.0246.044.0523.0588.0818.0412.0833.0428.18087.004.26518-.0149.0331-.0362.0643-.0636.0914l-.30781.346c.008.0119.0146.0233.0219.0348.0499.0797.0972.16112.14226.2439.0398.0731.0777.14722.11355.22259.0913.19157.1703.39032.23498.59522.0408.12922.0759.26065.10539.39438l.46315.0281c.17189.00013.31087.13933.31072.31067v.29471.1955.19406.65376c0 .17122-.13943.30971-.3112.30971l-.46267.0275c-.11961.53748-.33252 1.03982-.62097 1.48949l.30732.34648c.12145.12132.12119.31784 0 .43891l-.94964.94509c-.0607.0605-.14034.091-.21992.091-.0797 0-.15963-.0303-.22044-.091l-.34711-.30729c-.45163.28673-.95592.49822-1.49535.61651l-.0286.46118c0 .17124-.13945.31018-.31122.31018l-1.34238-.001c-.1719-.00013-.3109-.13935-.31073-.31068l-.0277-.46117c-.53924-.11922-1.04323-.33143-1.49436-.61892l-.34762.30631c-.0607.0605-.14037.091-.21993.091-.0797 0-.15965-.0303-.22043-.091l-.94818-.94702c-.12145-.1212-.12132-.31786 0-.43892l.3078-.34551c-.28767-.45016-.49934-.95326-.61802-1.49094l-.46512-.0281c-.17189-.00013-.31084-.13933-.31072-.31067l.001-1.05107c-1.23174 1.69045-3.49901 5.29936-3.49901 5.29936zm13.87222-15.42045c-.45012.0731-.92073.23329-1.4065.46504l.1534.13841c.38876-.24116.8108-.40692 1.24532-.49747zm.89477 1.04913.0718.38277.31897 1.6971c.0519.0344.10091.0743.14613.12053.0527.0536.0971.11224.13351.17421l1.67936.35278.38259.0804c-.003-.28575-.0474-.57099-.13595-.84588-.0403-.1254-.0897-.24881-.14808-.36875-.13028-.26754-.30525-.51895-.52531-.74329-.22002-.22434-.4682-.40425-.73361-.54005-.11895-.0609-.24168-.11276-.36655-.15581-.26657-.0919-.5439-.14338-.82291-.15389zm-.10776 2.41232c-.0473 0-.0947.008-.13982.0237-.0556.0195-.10749.0511-.15245.0948-.16508.16093-.16819.42485-.007.58942l.0119.0119c.003.001.003.003.004.004.0797.073.18151.10986.28306.10986.10539 0 .21094-.0398.29227-.11909.0348-.034.0622-.0725.0826-.11368.0761-.15412.0511-.34537-.0763-.4752-.0819-.0835-.19005-.12528-.29857-.12528zm-4.75889 1.77306c-.37862 0-.74262.0611-1.08314.17422-.15307.0508-.30163.11249-.44424.1834-.66381.33012-1.20477.86855-1.53709 1.52966-.0714.14203-.13324.28932-.18449.44181-.0373.11078-.0689.22422-.0947.3397l.37384.00049 2.17843.001c.16042-.16958.37488-.28769.61611-.32664l1.15208-1.76048.12238-.1868.11552-.17615c-.0415-.0157-.0835-.0308-.1258-.0451-.0336-.0119-.0675-.0217-.10143-.0319-.0755-.0227-.1521-.0426-.22963-.0601v-.00049c-.24289-.0547-.49547-.0835-.75495-.0836zm11.80689.20374.0486.25744.21459 1.14203c.0349.0231.0681.0502.0985.0813.0354.0361.0652.0755.0898.11711l1.12976.2376.2578.0541c-.00025-.02-.001-.04-.003-.0599-.46898-.61451-.93962-1.2024-1.41474-1.76679-.13811-.0368-.27943-.0576-.42142-.063zm-9.31869.86378-.036.0532-.22576.33681-.35976.5352-.10973.16357-.10973.16405-.58308.86814c.0157.0732.0237.14908.0237.22696-.00006.0905-.0118.17823-.0325.26227l1.14822 1.71694.26167.391c.24016-.24799.44309-.5321.5996-.84346.0714-.142.13323-.28983.18449-.44229.11434-.34012.17639-.70409.17672-1.08252 0-.26771-.0306-.52815-.0888-.77814-.0179-.0771-.0386-.15288-.0617-.22793-.008-.0256-.0163-.0511-.0248-.0764-.0188-.0568-.0394-.11303-.0611-.16841-.0369-.0934-.0777-.18468-.12238-.27389-.0946-.18884-.20604-.36778-.33256-.53473-.0768-.10131-.15917-.19826-.24664-.29035zm-6.83147.66248c-.17584.22698-.34983.45956-.52434.69248l.31556-.0188c.0516-.23205.12382-.45603.20878-.67361zm12.42734.014.42238.00049h.13015.13015.22091c.11566.00009.20935.0938.20926.20905l.0184.31067c.0864.0191.17137.0418.2549.0677.13457.0419.26517.0926.3913.15147.0511.0238.10143.049.15098.0755.056.0299.11118.0613.16508.0943.007.004.0119.008.0184.0119.008.005.017.0105.0253.0155l.23402-.20615c.0408-.0407.0946-.061.14807-.061.0119 0 .0227.001.034.003.0418.007.0818.0263.11408.0585l.005.005.58796.58698.0447.044c.0166.0166.0295.0353.0394.0552.0278.0561.0289.12186.003.17858-.0105.0223-.0242.0436-.0427.0619l-.20732.23276c.005.008.009.0154.0146.0232.0336.0536.0657.10828.0962.16404.0269.0491.052.0993.0763.15002.0614.12896.11421.2623.15778.4002.0275.0869.0515.17566.0714.26567l.3117.0188c.11566.00009.20935.0937.20924.20905v.1984.1316.13068.43987c0 .11527-.094.20857-.20971.20857l-.31123.0184c-.0805.36174-.22386.70005-.418 1.00267l.20681.23326c.0817.0815.0815.2137 0 .29518l-.63938.63635c-.0408.0407-.0946.061-.14808.061-.0536 0-.10709-.0206-.14807-.0615l-.23354-.20662c-.30396.19296-.64339.3351-1.00644.41471l-.0194.31068c0 .11526-.0937.20857-.20925.20857l-.90353-.00099c-.11566-.00008-.20934-.0933-.20925-.20856l-.0184-.31068c-.36292-.0802-.70235-.22315-1.00596-.41665l-.23402.20615c-.0408.0407-.0944.0614-.14808.0614-.0536 0-.10723-.0207-.14806-.0614l-.63845-.63732c-.0817-.0815-.0817-.21371 0-.29518l.20731-.23277c-.1936-.30297-.33618-.64129-.41606-1.00315l-.31364-.0188c-.11566-.00008-.20935-.0938-.20925-.20904l.003-.90058c.00007-.11526.0942-.20857.20974-.20857l.31169-.0184c.0805-.36172.22343-.70003.41753-1.00267l-.20683-.23325c-.0817-.0815-.0815-.21371 0-.29518l.63941-.63635c.0408-.0407.0946-.061.14808-.061.0536 0 .10709.0205.14808.0615l.23353.20664c.30397-.19298.6434-.33511 1.00644-.41472l.0194-.31068c0-.11527.0937-.20857.20925-.20857zm3.65049.0827c-.0317 0-.0638.005-.0942.0165-.0374.0132-.0727.034-.10288.0634-.11105.10829-.11303.28607-.004.39681l.008.008c.003.00072.003.001.003.003.0536.0491.12198.074.19033.074.0709 0 .14189-.027.19662-.0804.0233-.0229.0422-.0487.0559-.0764.0512-.10368.0342-.23249-.0515-.31987-.0551-.0563-.12791-.0847-.20099-.0847zm-11.73504 1.08542c-.27812.00025-.50373.2245-.50396.50183v.0208c.00008.003.00013.004 0 .007.0142.26496.23414.47547.50348.47568.0587 0 .1146-.0105.16702-.0286.19612-.0688.33724-.25474.33741-.47375 0-.20209-.11935-.37634-.29178-.45633-.0643-.0298-.13604-.0464-.21169-.0465zm8.53171.10842c-.25478 0-.50004.041-.72922.11711-.10301.0343-.20259.0756-.29859.12343-.44677.22217-.81095.58435-1.0346 1.02929-.0481.0956-.0898.19497-.12436.2976-.025.0746-.0462.15069-.0636.22842l.25148.00049 1.46623.001c.10802-.11408.25226-.19396.41461-.22019l.77535-1.18461.0826-.12581.0777-.11855c-.0279-.0105-.056-.0206-.0844-.03-.0227-.008-.0456-.0149-.0685-.0217-.0506-.0152-.10196-.029-.15392-.0406h-.00048c-.16332-.0367-.33335-.056-.50785-.0561zm1.67496.71813-.0242.0363-.15199.22647-.24177.36004-.0738.11039-.0738.10986-.39274.58457c.0105.0493.0165.10051.0165.15291-.00004.0609-.008.12001-.0219.17664l.77243 1.1551.17624.26325c.16162-.16691.29812-.35808.40344-.56764.0481-.0955.0898-.19498.12422-.2976h-.00049c.0769-.2289.11869-.4736.11896-.72829 0-.18018-.0204-.35583-.0597-.52409-.0118-.0519-.0262-.10288-.0418-.1534-.005-.0172-.0105-.0343-.0161-.0512-.0132-.0382-.0266-.0759-.0412-.11329-.0249-.063-.0524-.12488-.0825-.18486-.0636-.12712-.13869-.24717-.22383-.35954-.0518-.0682-.10723-.13352-.16604-.1955zm-13.55078.41616c.0256.11553.0566.22891.0937.33972.051.15257.11277.30015.18399.44228.33121.66167.87141 1.20133 1.53469 1.53257.14249.0711.29027.1328.44326.18389.34122.11395.7064.17583 1.08606.17614h.003c.37862 0 .7431-.0616 1.08365-.17469.0339-.0118.0672-.0226.10051-.0348l-1.3963-2.14182c-.22685-.0447-.42788-.15979-.58018-.32132l-2.17843-.001zm17.91496.7041h.003l.38793.004c.0497.00049.0893.041.0888.0905l.007.13356c.15062.0349.29663.0959.43017.18292l.10103-.0871c.0174-.017.0405-.0257.0631-.0257.0233 0 .0465.009.0642.0271l.27091.27583c.0348.0354.0341.0922-.003.12685l-.0898.0992c.0843.13501.14216.28124.1738.43214l.1374.009c.0497.00049.0894.041.0889.0905l-.004.38665c-.003.0491-.0406.0885-.0898.0885-.003 0-.003.00001-.003 0l-.13401.007c-.035.15015-.0962.29567-.18351.42875l.0873.10064c.0348.0354.0341.0922-.003.12672l-.27721.27002c-.0174.017-.0399.0257-.0626.0257-.0233 0-.047-.009-.0645-.0271l-.0991-.0896c-.12843.0797-.26714.13592-.41026.1684-.0105-.0178-.0232-.0348-.0383-.0498-.0448-.0447-.10394-.0698-.16702-.0711l-.0597-.004c-.003-.001-.003-.004-.003-.005-.0188-.0663-.0419-.1312-.0685-.19454.0119.00049.0232.00098.0345.00098.10236 0 .20453-.0159.30293-.0474.0439-.014.0868-.0311.1287-.0512.0935-.0452.18133-.10604.25973-.18243.0784-.0764.14139-.16237.18887-.25454.005-.009.009-.0183.0136-.0275l-.72193-.16065c-.052.034-.11197.0508-.17187.0508-.004 0-.009-.0003-.0136-.0005l-.0922.0905-.30441-.3039.0956-.0934c-.003-.0673.0194-.13499.0611-.19163l-.1437-.71812c-.0119.005-.0233.0105-.0349.0165-.0935.0452-.18134.10552-.25974.18195-.0784.0764-.14139.16286-.18887.25503-.0213.0414-.0394.0839-.0544.12725-.0407.11711-.0589.24032-.0539.36294-.0611-.025-.12369-.0468-.18743-.0648l-.003-.0194-.003-.0396c-.003-.063-.0262-.12225-.0709-.16695-.0236-.0236-.0616-.0547-.0616-.0547.035-.15015.0967-.2952.18399-.42827l-.0879-.10117c-.0346-.0354-.0341-.0922.003-.12673l.27722-.27003c.0174-.017.0404-.0257.0631-.0257.0233 0 .0465.009.0641.0271l.0994.0896c.13546-.084.2822-.14171.43358-.17326l.009-.13307c.003-.0491.0407-.0885.0898-.0885zm-6.03914.12145c-.1871.00024-.33873.15118-.33888.33777v.014c.00006.001.00008.003 0 .004.009.17832.15713.3202.33839.32035.0395 0 .0773-.007.11263-.0194.13199-.0462.2266-.1715.22672-.31889 0-.13601-.0801-.25298-.19612-.3068-.0432-.02-.0914-.0314-.14227-.0315zm6.25858.42875.0248.13307.11118.59135c.0182.0119.0352.0259.051.0422.0184.0187.0339.0389.0466.0605l.58504.12343.13302.0275c-.003-.0996-.0162-.19894-.047-.2947-.0142-.0437-.0312-.0864-.0515-.12818-.0454-.0933-.10643-.18073-.18302-.2589-.0767-.0781-.1634-.14093-.25586-.18824-.0415-.0212-.0842-.0393-.12765-.0541-.0929-.032-.18922-.0501-.28643-.0538zm-8.50889.40745c.0171.0777.0382.15384.0631.22841l-.0005.00049c.0344.10275.0759.20195.12382.29762.2229.4453.58677.80829 1.03315 1.03121.0959.0478.19558.0894.29857.12382.22963.0767.47518.1183.73069.11856h.003c.25479 0 .50006-.0415.72919-.11763.0229-.008.0456-.0154.068-.0237l-.93993-1.4411c-.15268-.0302-.28832-.10762-.39082-.21631l-1.46572-.001zm6.5829.39004h.21847.0674.067.1146c.0598.00004.10829.0487.10829.10842l.009.16066c.0448.009.0888.0219.13207.0353.0697.0217.13716.0474.20244.0778.0265.0119.0526.0256.0781.0393.029.0154.0576.0317.0855.0489.004.003.007.004.009.007.004.003.008.005.0132.008l.12132-.10644c.0211-.0211.049-.0315.0767-.0315.007 0 .0119.00071.0175.001.0216.004.0426.0133.0593.03l.003.003.30393.30391.0233.0232c.009.008.0154.0183.0204.0286.0145.029.0149.0631.003.0925-.005.0119-.0119.0224-.0219.0319l-.10736.12053.008.0119c.0174.0278.0338.0558.0495.0847.014.0254.0267.0511.0394.0775.0317.0668.0596.13621.0821.20759.0142.0451.0266.0909.0369.13744l.16117.009c.0599.00004.10828.0487.10828.10841v.10262.0682.0677.22744c0 .0597-.0485.10789-.10828.10789l-.16165.009c-.0416.18726-.11553.3621-.21606.51876l.10683.12092c.0423.0423.0423.11079 0 .15293l-.33063.32906c-.0211.0211-.049.0319-.0767.0319-.0278 0-.0555-.0105-.0767-.0319l-.12093-.10696c-.15734.0999-.33299.17364-.52094.21486l-.0105.16066c0 .0597-.0485.10789-.10828.10789l-.46753-.00049c-.0599-.00005-.10881-.0487-.10881-.10841l-.009-.16066c-.18787-.0415-.36327-.11513-.52044-.21534l-.12093.10644c-.0211.0211-.049.0319-.0767.0319-.0278 0-.0556-.0105-.0767-.0319l-.33063-.33003c-.0423-.0423-.0423-.11026 0-.15244l.10723-.12092c-.10025-.15684-.1742-.33191-.21557-.51925l-.16408-.009c-.0599-.00005-.10828-.0482-.10828-.10788l.003-.46601c.00005-.0597.0483-.10842.10828-.10842l.1612-.009c.0418-.18725.11606-.36259.21654-.51924l-.10736-.12053c-.0423-.0423-.0423-.11079 0-.15293l.33113-.32954c.0211-.0211.049-.0315.0767-.0315.0278 0 .0555.0105.0767.0319l.12093.10696c.15736-.0999.33299-.17364.52094-.21485l.009-.16067c0-.0597.0489-.10789.10867-.10789zm1.88908.0426c-.0165 0-.0328.003-.0486.008-.0194.007-.0373.0182-.053.0335-.0574.0561-.059.14784-.003.20518h-.00049c.003.001.003.003.004.004.003.00049.003.00071.003.00099.0278.0254.0627.0382.098.0382.0368 0 .0736-.0136.10196-.0411.0119-.0119.0219-.0253.0291-.0397.0266-.0537.0177-.12027-.0267-.16551-.0286-.0291-.0665-.044-.10447-.044zm-1.6604.61796c-.13189 0-.25859.0216-.37724.061-.0534.0178-.10525.0391-.15488.0639-.23127.115-.41975.30247-.5355.5328-.0249.0495-.0462.10077-.064.15389-.0132.0386-.024.0782-.0331.11855h.13015l.75934.00049c.0558-.059.13054-.10011.21459-.11368l.40102-.61313.0427-.0648.0403-.0615c-.0144-.005-.029-.0105-.0437-.0159-.0119-.004-.0237-.008-.0354-.0105-.0263-.008-.0531-.0148-.0801-.0208-.0842-.0188-.17179-.0295-.26171-.0295zm.86855.37213-.0119.0184-.0792.11764-.12475.1863-.0383.057-.0383.0572-.20293.30246c.005.0255.008.0518.008.0789-.00001.0315-.004.0622-.0105.0914l.40006.59811.0913.13647c.0837-.0864.15422-.18575.20875-.29422.0249-.0495.0462-.10077.0642-.15388h-.0005c.0398-.11856.0616-.24513.0616-.37698 0-.0933-.0105-.18437-.0311-.27147-.007-.0269-.0134-.0532-.0213-.0793-.003-.009-.005-.0178-.008-.0266-.007-.0198-.0137-.0393-.0213-.0586-.0132-.0325-.0271-.0643-.0427-.0954-.0329-.0657-.0719-.12817-.11605-.18631-.0267-.0353-.0555-.069-.0859-.10117zm-.8671.64263c-.0969 0-.1752.078-.17527.1747v.008c.00003.00073.00004.001 0 .003.005.0923.0814.1659.17527.16598.0204 0 .0401-.004.0582-.0105.0684-.024.11698-.0888.11698-.16502 0-.0703-.0414-.1308-.10143-.15872-.0224-.0105-.0474-.0165-.0738-.0165zm-1.16373.43263c.009.0403.0196.08.0325.11856h-.00097c.0179.0532.0387.10433.0636.15389.11539.23051.30392.41883.53501.53424.0497.0248.10103.0461.15438.0639.11882.0397.24594.0614.37821.0614h.003c.13189 0 .25903-.0216.37771-.061.0119-.004.0232-.008.0349-.0119l-.48646-.7462c-.079-.0155-.14893-.0555-.20196-.11184l-.75934-.00097zm-7.27426.35229v26.93908s-2.57413-5.13142-2.57413-13.46978c0-8.33835 2.57413-13.4693 2.57413-13.4693zm1.28706 0s2.57411 5.13095 2.57411 13.4693c0 8.33836-2.57411 13.46978-2.57411 13.46978zm-.64327 26.84279c1.42146.00034 2.57367 1.72334 2.57363 3.84858.00004 2.12525-1.15217 3.84823-2.57363 3.84859-1.42167.00005-2.57417-1.72305-2.57413-3.84859-.00004-2.12555 1.15246-3.84865 2.57413-3.84858zm-.64379 7.60086v26.93957s-2.57413-5.13143-2.57413-13.46978c0-8.33836 2.57413-13.46979 2.57413-13.46979zm1.28706 0s2.57411 5.13143 2.57411 13.46979c0 6.75539-1.67094 11.34992-2.31242 12.87215l.11645.10499c.24812-.15391.5164-.26244.79283-.32519.0202.0345.0448.0668.0738.0958.0864.0863.20038.13499.32236.13744l.11553.007c.003.003.003.007.003.009.0366.12804.0808.25312.13206.37551-.0221-.00073-.044-.00098-.066-.00098-.19761 0-.39541.0302-.58552.091-.0847.0271-.16761.0601-.24858.0992-.18066.0873-.35052.20468-.50199.35229-.15149.14763-.27292.31458-.36462.49263-.009.0177-.0182.0353-.0267.0532l1.39533.31018c.10064-.0656.21646-.0983.33209-.0983.008 0 .0167.00012.0253.00049l.17914-.17469.58797.58698-.18547.18051c.003.13002-.037.26031-.11803.3697l.27769 1.38739c.0227-.0105.0456-.0202.068-.031.18065-.0873.35054-.20467.502-.35229.15148-.1476.27288-.31409.36461-.49214.0411-.0798.0763-.16206.10538-.24582.0785-.2263.11303-.46433.10341-.7012.11803.0483.23848.09.36168.12488l.003.0377.005.0769c.003.12159.0505.23552.13692.32181.0457.0457.11843.10604.11843.10604-.0677.29003-.18619.57043-.35491.8275l.16944.19502c.0671.0684.0656.17802-.003.24486l-.53504.52166c-.0337.0329-.0776.0494-.12132.0494-.0451 0-.0902-.0171-.12435-.0518l-.19175-.17324c-.26166.16231-.54555.27392-.83798.33488l-.019.25744c-.003.0948-.0784.17081-.17334.17081-.003 0-.003.00001-.003 0l-.74863-.008c-.0959-.00098-.17296-.0796-.17187-.17518l-.0132-.25793c-.29098-.0676-.57227-.1851-.8302-.35326l-.19568.16841c-.0337.0329-.0776.0494-.12133.0494-.0451 0-.0902-.0171-.12435-.0518l-.52338-.53376c-.067-.0684-.0659-.17802.003-.24486l.1738-.19114c-.16284-.26079-.2748-.54376-.33595-.83524l-.25877-.0188c-.0959-.00097-.17298-.079-.17188-.17469l.009-.74668c.003-.095.0788-.17082.1738-.17082.003 0 .003-.00001.003 0l.25827-.0132c.0677-.29003.18621-.57042.35492-.82749l-.16946-.19502c-.0671-.0684-.0656-.17754.003-.24438l.53551-.52214c.0165-.0161.0391-.0159.0593-.0242zm4.50253 21.86524.90302.00048c.11566.0001.20935.0938.20926.20906l.019.31067c.36291.0802.70234.22268 1.00596.41616l.23352-.20614c.0408-.0407.0945-.061.14807-.061.0536 0 .10763.0205.14857.0615l.63794.63731c.0817.0817.0817.21371 0 .29519l-.2073.23276c.19359.30298.33618.64129.41606 1.00316l.31366.0188c.11566.00009.20935.0938.20925.20906l-.003.90056c-.00008.11526-.0937.20857-.20925.20857l-.31169.0184c-.0805.36172-.22342.70003-.41754 1.00267l.20682.23325c.0817.0815.0817.21371 0 .29518l-.63939.63587c-.0408.0407-.0946.061-.14807.061-.0536 0-.10709-.0202-.14807-.061l-.23355-.20664c-.30395.19298-.64388.33511-1.00693.41473l-.019.31067c0 .11527-.0937.20856-.20926.20856l-.4224-.00049h-.13015-.13015-.22092c-.11565-.00008-.20934-.0938-.20925-.20904l-.019-.31067c-.0864-.0191-.17087-.0418-.2544-.0677-.13457-.0419-.26567-.0927-.3918-.15147-.0511-.0238-.10143-.049-.15098-.0755-.056-.0299-.11065-.0613-.16458-.0943-.007-.004-.0132-.008-.019-.0118-.008-.005-.0165-.0105-.0248-.0156l-.234.20615c-.0408.0407-.0946.061-.14808.061-.0119 0-.0227-.001-.034-.003-.0418-.007-.0818-.0263-.11408-.0585l-.007-.005-.58747-.58698-.0446-.0445c-.0166-.0166-.0295-.0353-.0394-.0552-.0278-.056-.0288-.12185-.003-.17856.0105-.0223.0242-.0431.0427-.0615l.20732-.23275c-.005-.008-.009-.0154-.0146-.0232-.0336-.0536-.0657-.10828-.0962-.16406-.0267-.0491-.0526-.0993-.0767-.15001-.0614-.12896-.11421-.26278-.1578-.40067-.0274-.0869-.051-.17519-.0709-.26519l-.31169-.0194c-.11566-.00009-.20934-.0933-.20925-.20857v-.19841-.1321-.13015-.43989c0-.11526.0937-.20856.20925-.20856l.31169-.0188c.0805-.36173.22389-.69956.41803-1.00219l-.20684-.23325c-.0817-.0817-.0817-.2137 0-.29519l.63894-.63635c.0408-.0407.0946-.061.14808-.061.0536 0 .10763.0206.14854.0614l.23355.20615c.30395-.19296.64338-.33462 1.00643-.41423l.019-.31067c0-.11526.0942-.20857.20973-.20857zm.45054 1.27608c-.25479 0-.50002.0415-.72923.11764-.0229.008-.0456.015-.068.0232l.93992 1.44158c.15268.03.28787.10762.39036.21631l1.46621.00098.25197.00049c-.0171-.0777-.0387-.15431-.0636-.22888h.00048c-.0342-.10275-.0755-.20196-.12329-.29762-.22291-.44529-.58677-.80831-1.03317-1.03123-.0959-.0478-.19559-.0894-.29858-.12383-.22963-.0767-.47515-.11829-.73067-.11855zm-1.65894.70265c-.16164.16692-.29815.35808-.40347.56763-.0481.0955-.0898.195-.12435.2976h.00049c-.0769.22891-.11922.47361-.11948.7283 0 .18017.0209.35534.0602.52359.0118.0519.0257.10341.0412.15389.005.0172.0105.0342.0165.0512.0132.0382.0266.0759.0412.11329.0249.0628.0524.12435.0825.18438.0636.12712.13869.24767.22382.36003.0518.0682.1071.13353.16602.19551l.0238-.0364.15195-.22647.24226-.36051.0738-.10986.0738-.11039.39231-.5841c-.0105-.0493-.0161-.10051-.0161-.15291.00005-.0609.008-.12.0219-.17662l-.77292-1.15559zm-15.4729.82217c-.27901.0105-.55634.0619-.82291.15389-.12488.0431-.24759.095-.36658.15582-.26541.13579-.51354.31571-.73358.54004-.22003.22434-.39506.47575-.52531.74329-.0584.11988-.10776.24338-.14808.36876-.0361.11223-.0632.22655-.085.34164.0867.14588.18434.29049.27235.43649l.0593-.0132 1.67934-.35277c.0365-.0619.0809-.12053.13351-.17421.0453-.0461.0943-.0861.14613-.12054l.31898-1.69708zm17.1328.43504c-.0395 0-.0773.007-.11262.0188-.132.0462-.22661.1715-.22673.31889 0 .13603.0805.25345.19662.30729.0432.02.0914.0314.14226.0315h.00049c.18711-.00025.33874-.15118.33889-.33777v-.0141c-.00005-.001-.00008-.003 0-.004-.009-.17832-.15762-.3202-.33889-.32035zm.5326.83862c-.10801.11408-.25275.19349-.41509.2197l-.77535 1.18512-.0821.12527-.0777.11909c.0279.0105.056.0206.0844.03.0226.008.0456.0145.0685.0213.0506.0151.10196.029.1539.0407h.00048c.16332.0367.33335.0565.50785.0566h.003c.25479 0 .50003-.041.72922-.11711.10301-.0342.20258-.0756.29859-.12343.44676-.22216.81095-.58483 1.0346-1.02976.0481-.0956.0898-.1945.12422-.29713.025-.0746.0462-.15115.0636-.22889h-.25199zm-17.55762 1.13865c-.10855 0-.21671.0419-.29859.12541-.12739.12989-.15238.32109-.0763.47521.0204.0412.0477.0797.0826.11368.0813.0793.18687.11908.29227.11908.10156 0 .20336-.0369.28305-.10986.001-.001.001-.003.004-.004l.0119-.0119c.16137-.16457.15828-.42849-.007-.58941-.0449-.0437-.0969-.0752-.15245-.0949-.0451-.0158-.0926-.0237-.13983-.0237zm13.8217 1.29158c-.0709 0-.14189.0265-.19662.0798-.0233.0229-.042.0491-.0559.0769-.0512.10367-.0342.23249.0515.31987.0551.0563.12791.0842.20099.0842.0317 0 .0634-.005.0937-.0159.0374-.0132.0727-.0344.10288-.0639.11105-.10829.11303-.28557.004-.39633l-.008-.008c-.003-.00073-.003-.001-.003-.003-.0536-.0491-.12198-.074-.19031-.074zm-1.9114.29471c.003.19231.0318.38456.0913.56956.0271.0844.0602.16705.0996.24777.0877.18007.20584.34938.35394.50037.14808.15098.31514.27202.49374.36342.0801.041.1626.076.24664.10499.17941.0619.36619.0966.55396.10354l-.0486-.25744-.21461-1.14206c-.0349-.023-.0681-.0502-.0985-.0813-.0354-.0361-.0652-.0755-.0898-.11711l-1.13026-.2376zm-7.15435.18678c-.25948.0002-.51206.029-.75494.0838-.0776.0174-.15417.0378-.22963.0605-.034.0105-.0678.0207-.10144.0319-.0423.0141-.0842.0293-.1258.0451l.11553.17615.12238.18679 1.1521 1.76048c.24125.039.45567.15708.6161.32664l2.17844-.001.37384-.00049c-.0258-.11553-.0574-.22894-.0947-.33971-.0512-.15248-.11329-.29978-.18446-.44181-.33233-.6611-.87328-1.19954-1.5371-1.52965-.14261-.071-.29119-.13258-.44426-.18341-.34052-.11303-.70453-.17421-1.08314-.17421zm-2.48526 1.06752c-.0875.0921-.1698.18902-.24664.29036-.12646.16694-.23806.34541-.33257.53423-.0446.0892-.0855.18093-.12237.27438-.0219.0555-.0423.11158-.0611.16841-.008.0253-.017.0505-.0248.076-.0231.0751-.0437.15131-.0616.22842-.0582.25-.0888.51043-.0888.77814.00025.37843.0624.74242.17674 1.08252.001.005.004.0105.007.0165.29119.3829.58399.75457.87827 1.11929l.16118-.24099 1.1482-1.71693c-.0211-.084-.0324-.17178-.0325-.26228 0-.0779.008-.15373.0238-.22696l-.58309-.86863-.10973-.16355-.10973-.16357-.35977-.53521-.22576-.33681zm2.48868 1.84421c-.0758.00005-.14724.017-.21169.0469-.17247.08-.29229.25424-.29229.45632.00019.21902.14132.40503.33744.47376.0523.0183.10829.0286.167.0286.26933-.00021.4893-.21071.50347-.47567-.00013-.003-.00008-.004 0-.007v-.0208c-.00022-.27732-.22581-.50157-.50393-.50182zm3.34411 1.24318-.37383.00049-2.17845.001c-.15231.16153-.35333.27663-.58018.32132l-1.39628 2.14182c.0333.0119.0668.0236.10051.0348.34055.11302.70504.17468 1.08364.17468h.003c.37964-.00023.74485-.0627 1.08607-.17662.153-.0511.30078-.11223.44326-.18341.66328-.33123 1.20345-.87092 1.53466-1.53255.0711-.14215.13301-.28974.18402-.44231.0369-.11079.0681-.22417.0937-.33971zm6.56639.45294.0485.25744.2146 1.14204c.0349.0232.0681.0502.0985.0813.0354.0361.0652.0755.0898.11711l1.13025.2376.25732.0541c-.003-.19231-.0317-.38458-.0913-.56956-.0271-.0844-.0602-.16705-.0996-.24778-.0877-.18006-.20534-.34938-.35344-.50036-.14808-.15099-.31564-.27204-.49424-.36342-.0801-.041-.1621-.076-.24614-.10499-.1794-.0619-.36668-.0964-.55445-.10354zm-.0723 1.62354c-.0317 0-.0635.005-.0937.0159-.0374.0132-.0727.0344-.10288.0639-.11105.10828-.11303.28558-.004.39634l.008.008c.003.00074.003.001.003.003.0536.0491.12199.074.19031.074.0709 0 .14189-.0265.19663-.0798.0233-.0229.0422-.0491.0559-.0769.0512-.10367.0348-.23249-.051-.31987-.0549-.0563-.12844-.0842-.20147-.0842zm-3.20333 1.19333c-.25479 0-.49956.041-.72875.11711-.10301.0342-.20306.0756-.29906.12343-.44677.22218-.81096.58486-1.0346 1.02978-.0481.0956-.0893.19497-.12383.2976-.025.0746-.0468.15068-.0641.22841h.25199l1.46572.001c.10802-.11408.25275-.19347.4151-.21969l.77536-1.18462.0821-.12581.0777-.11908c-.0279-.0105-.056-.0206-.0844-.03-.0226-.008-.0456-.0145-.0685-.0213-.0506-.0151-.10196-.029-.1539-.0407h-.00048c-.16332-.0367-.33347-.0565-.50783-.0566zm1.67545.71813-.0242.0362-.15198.22647-.24177.36052-.0743.10986-.0738.11039-.39228.58457c.0105.0493.0161.1.0161.15242-.00005.0609-.008.12001-.0219.17664l.77293 1.15559.0951.14227c.11052-.0595.22264-.12791.3345-.19454.0547-.0809.10539-.16481.14954-.2526.0481-.0955.0898-.19452.12436-.29712.0769-.22891.11869-.47409.11895-.72879 0-.18014-.021-.35533-.0602-.52359-.0119-.0519-.0257-.1034-.0412-.15388-.005-.0171-.0105-.0342-.0165-.0513-.0132-.0382-.0266-.0759-.0412-.11329-.0249-.0628-.0526-.12435-.0826-.18437-.0636-.12712-.13868-.24766-.22382-.36003-.0518-.0682-.1067-.13353-.16555-.1955zm-1.67545 1.24173c-.18711.00024-.33873.15119-.33889.33777v.014c.00005.001.00008.003 0 .004.009.17832.15763.32019.33889.32034.0395 0 .0773-.007.11263-.0188.13199-.0462.2266-.17151.22672-.3189 0-.13602-.0805-.25345-.19662-.30729-.0432-.02-.0914-.0314-.14226-.0315zm-2.24981.8362c.0171.0777.0382.15432.0631.2289h-.00049c.0344.10261.0759.20194.12383.2976.2229.44532.58626.8083 1.03266 1.03123.0959.0478.19561.0894.29859.12382.43085 0 .89012-.11697 1.36036-.28309l-.76999-1.18075c-.15268-.03-.28786-.10762-.39035-.21631l-1.46622-.00098z"/></g><path d="m-410.30345-176.50359c2.74924-7.33129 4.58206-14.66257 4.58206-21.99386s-2.02339-14.62179-4.77262-21.95308c-2.74923 7.33129-4.39149 14.62179-4.39149 21.95308s1.55149 15.51895 4.30073 22.85024" fill="#f39192"/><g fill="none" stroke="#c03a31" stroke-linecap="round" transform="matrix(.38109846 0 0 .38109846 -105.80578 -169.86697)"><path d="m-802-116.30326 6 3.30326-6 3.4641 6 3.4641-6 5.32087 5 3.822727-5 4.249066 5 3.750934-5 4.865936 6 3.484917-6 4.515083 5 3.639617-5 4.124533 5.42265 4.298117-5.42265 4.484917 5.4641 2.515083-5.4641 5.311333 5 4.224565-5 4 5 4-5 4 3 2" stroke-dasharray="8 2 1 2"/><path d="m-802-114 2 1-2 1"/><path d="m-802-106.46575 2 1-2 1"/><path d="m-802-97.935239 2 1-2 1"/><path d="m-802-89.902859 2 1-2 1"/><path d="m-802-81.372348 2 1-2 1"/><path d="m-802-73.277703 2 1-2 1"/><path d="m-802-64.996258 2 1-2 1"/><path d="m-802-56.714813 2 1-2 1"/><path d="m-802-48.433368 2 1-2 1"/><path d="m-802-40.151923 2 1-2 1"/></g><g transform="matrix(.24447453 0 0 .24447453 -371.71856 -223.33405)"><path d="m-303.44555 194.14569c-11.24548-29.98795-19.64412-58.4447-19.64412-88.43265 0-29.987947 8.39864-63.928685 19.64412-93.91663 11.24548 29.987945 17.84081 63.928683 17.84081 93.91663 0 29.98795-6.59533 58.4447-17.84081 88.43265" fill="#f39192"/><g fill="none" stroke="#f39192" stroke-linecap="round" transform="matrix(-1.5588473 0 0 1.5588473 -1549.8662 222.82332)"><path d="m-802-116.30326 6 3.30326-6 3.4641 6 3.4641-6 5.32087 5 3.822727-5 4.249066 5 3.750934-5 4.865936 6 3.484917-6 4.515083 5 3.639617-5 4.124533 5.42265 4.298117-5.42265 4.484917 5.4641 2.515083-5.4641 5.311333 5 4.224565-5 4 5 4-5 4 3 2" stroke-dasharray="8 1.99999 1 1.99999"/><path d="m-802-114 2 1-2 1"/><path d="m-802-106.46575 2 1-2 1"/><path d="m-802-97.935239 2 1-2 1"/><path d="m-802-89.902859 2 1-2 1"/><path d="m-802-81.372348 2 1-2 1"/><path d="m-802-73.277703 2 1-2 1"/><path d="m-802-64.996258 2 1-2 1"/><path d="m-802-56.714813 2 1-2 1"/><path d="m-802-48.433368 2 1-2 1"/><path d="m-802-40.151923 2 1-2 1"/></g></g><g fill="none" stroke="#c03a31" stroke-linecap="round" transform="matrix(-.38109846 0 0 .38109846 -750.621371 -168.859424)"><path d="m-802-116.30326 6 3.30326-6 3.4641 6 3.4641-6 5.32087 5 3.822727-5 4.249066 5 3.750934-5 4.865936 6 3.484917-6 4.515083 5 3.639617-5 4.124533 5.42265 4.298117-5.42265 4.484917 5.4641 2.515083-5.4641 5.311333 5 4.224565-5 4 5 4-5 4 3 2" stroke-dasharray="8 2 1 2"/><path d="m-802-114 2 1-2 1"/><path d="m-802-106.46575 2 1-2 1"/><path d="m-802-97.935239 2 1-2 1"/><path d="m-802-89.902859 2 1-2 1"/><path d="m-802-81.372348 2 1-2 1"/><path d="m-802-73.277703 2 1-2 1"/><path d="m-802-64.996258 2 1-2 1"/><path d="m-802-56.714813 2 1-2 1"/><path d="m-802-48.433368 2 1-2 1"/><path d="m-802-40.151923 2 1-2 1"/></g></g><g fill="#f39192" stroke-dasharray="154.108 38.527 19.2635 38.527" stroke-linecap="round" stroke-width="7.09417" transform="translate(-2291.0261)"><path d="m2388.9712 943.93248q-1.9398-1.16388-4.1382-1.42252l-2.4571-.12932.1293-14.09592q.6466-61.29782.2587-64.01355-.388-1.03456-1.1639-.90524-1.2932.12932-2.9744-.25864-1.6811-.38796-2.845-1.03456-1.1639-.77592-1.0346-1.29321 1.0346-3.233 14.6132-3.233 9.3111 0 14.6132 1.68116 5.4315 1.55184 9.3111 5.81941 2.5864 2.71573 2.9743 4.00893.5173 1.16389.2587 5.30214-.2587 3.49164-.7759 5.04349-.5173 1.55184-2.4571 3.62097-7.1127 8.14718-11.8975 11.5095l-2.1984 1.55185 4.0089 5.17281q.1293.12932 4.3969 5.04349 4.3969 4.91417 6.5953 6.3367 6.3367 4.39689 11.5095 5.04349 5.3021.51728 5.6901.90524 2.0691 1.2932-1.1639 4.26757-3.6209 3.10369-7.8885 3.10369-3.4917 0-8.0179-3.87961-4.5262-3.87961-14.0959-15.64776-1.8105-2.19844-3.4916-4.13825-1.6812-1.9398-2.7158-2.84504-1.0345-1.03457-1.1638-.90525-.6466.64661-.6466 22.11378 0 21.33785-1.0346 23.27765-.5173 1.03456-2.1985 0zm9.8284-54.57317q3.233-1.9398 4.6555-3.10369 1.4225-1.16388 3.7503-4.13825 2.5864-3.10368 2.8451-5.69009.2586-2.5864-.776-4.78485-.9052-2.84505-2.4571-4.39689-1.5518-1.55184-6.078-3.23301-5.9487-2.19844-7.2419.51728-1.2932 2.71573-.9053 16.03572.2587 9.82834.7759 10.60427.6466.90524 4.009-1.03457 1.0345-.51728 1.4225-.77592z"/><path d="m2446.7774 927.89676q-1.1639-1.03456-4.9141-3.233-2.8451-1.68117-4.009-3.75029-1.1639-2.06913-2.9743-8.14718-1.1639-4.13825-1.4226-7.37126-.2586-3.23301-.1293-12.02679.2587-13.06135 1.8105-17.97552 1.5518-4.91417 5.8194-6.59534 3.8796-1.55184 6.7247.77592 2.1984 1.81049.1293 3.75029-1.2932 1.03457-1.5519 4.52621-.2586 2.97437-1.2932 7.37126-1.1638 4.26757-.2586 16.16504.6466 8.66446 1.4225 11.63883.9053 2.84505 3.621 6.20737 1.4225 1.81049 5.5608 2.06913 4.2675.25864 6.9833-1.16388 5.6901-3.10369 8.0178-14.74252 2.4571-11.63883.7759-27.54523l-1.0345-9.69902 2.0691-1.03456q2.9744-1.42252 3.621-.6466.7759.77592.9052 5.56077 0 22.11377-1.5518 29.87299-3.8796 19.13941-10.475 23.27766-5.0435 3.10368-10.2163 3.87961-5.0435.77592-7.6299-1.16389z"/><path d="m2503.2904 941.4754q-.5173 0-2.3278-.38796-1.6811-.38797-2.457-.51729-2.4571-.38796-6.854-4.00893-4.3969-3.62096-5.4315-6.07805-.6466-1.42252-.5173-2.06912.1294-.77593 1.0346-1.68117 1.5518-1.42252 3.7503-.6466 2.1984.6466 3.7503 3.23301 1.9398 2.71572 4.6555 5.17281 3.1037 2.58641 6.9833 2.58641 4.1383 0 4.5262-.77593.388-.90524 2.0691-.90524 1.5519 0 1.5519-.77592 0-.90524 1.0346-.90524.9052 0 2.3277-1.55185 1.4225-1.68116 1.4225-2.71572 0-1.16389 1.8105-3.87961l.6466-3.36233-1.2932-5.43145q-.6466-1.81049-1.1639-2.71573-.5172-.90524-1.0345-1.42252-.388-.51728-2.4571-2.19845-1.9398-1.81048-3.7503-3.49165-8.0179-7.50057-10.9922-9.31106-2.7158-1.68116-5.3022-4.78485-.5172-.51728-1.9398-2.71573-1.4225-2.19844-2.0691-2.84504-2.7157-2.84505-1.9398-11.76815.6466-6.72466 4.3969-10.60427 3.8796-3.87961 12.2854-5.30213 10.3457-1.68116 15.1305 1.2932 1.2932.90525 1.4225 2.97437.2587 2.06913-.7759 2.97437-.9052.77592-1.6812.77592-.7759-.12932-3.233-1.03456-4.1382-1.68117-9.699-1.03456-8.2765 1.03456-8.2765 7.62989 0 3.87961 1.4225 6.59534 1.4226 2.71573 5.1728 5.56077 4.009 2.97437 6.5954 5.30214 2.1984 1.9398 3.7503 2.71572 3.3623 1.81049 8.1472 8.53514 4.9141 6.72466 4.9141 9.5697 0 1.68117 1.0346 3.23301.9052 1.55185-1.2932 8.66446-2.1985 6.72466-5.9488 10.73359-4.0089 4.13825-9.311 6.07805-5.3021 2.06913-10.087 1.29321z"/><path d="m2558.1222 941.34608q-2.4571-.51729-2.9744-1.16389-.5172-.6466-.5172-2.71572 0-8.53514-.2587-25.08814-.2586-16.553-.6466-29.48503-.2586-13.06135-.3879-13.32-.388-.6466-4.6556-.25864-2.3277.25864-10.087.90525l-5.6901.6466.6467-2.84505q.6466-2.84505 2.1984-4.26757 1.6812-1.42252 3.621-.6466 1.9398.77592 5.8194-.38796 4.0089-1.16388 5.6901-.90524 2.5864.25864 5.0435-.38796 7.7592-1.93981 17.7168-2.58641 10.087-.6466 12.1562.6466 1.0345.51728 1.0345 2.06913 0 1.55184-2.1984 1.55184-1.5519 0-3.621 1.03456-1.8105.90524-9.699 1.81049l-8.0179.90524v7.50058q0 8.14718 1.6812 46.68463.3879 9.05242.2586 12.15611-.1293 2.97436-1.0345 5.43145-1.2932 3.62097-1.9398 3.62097-.776 0-4.1383-.90524z"/><path d="m2622.5237 925.18104q-.6466-1.29321-1.6811-5.43146-1.1639-4.78485-2.8451-9.95766l-1.6811-5.30213-10.7336.51728q-7.3713.38796-9.4404.77592-1.9398.25864-2.9744 1.42252-1.6811 1.29321-1.6811 3.23301 0 1.68117-.6466 1.93981-.9053.38796-2.9744 4.91417-3.621 6.9833-6.3367 8.14718-1.1639.51728-1.1639-1.16388 0-.77593.2587-2.06913.3879-1.42252 1.4225-4.00893 6.3367-13.44931 5.1728-14.61319-1.2932-1.29321-1.2932-2.58641-.1293-1.2932.3879-1.55184.6466-.38796 2.7158-.38796 3.1037 0 3.233-1.55185.2586-1.81048 3.4916-7.75922 3.3624-6.20737 3.3624-6.85397 0-1.03457.9052-1.93981 1.2932-1.2932 2.4571-5.43145 1.4225-4.52621 2.9744-6.72466 1.5518-2.19844 3.233-2.06912 2.1984.12932 4.6555 2.45708 2.5864 2.19845 2.7157 4.13825.388 3.36233 2.3278 7.50058 1.6811 3.62097 3.8796 10.08699 3.4916 8.9231 5.9487 13.31999 1.0346 1.9398 2.5864 7.75922 1.6812 5.81941 1.5519 7.75921 0 1.68117-.6466 2.45709-.5173.77592-2.4571 1.42252-4.2676 1.68117-5.3021 1.93981-1.0346.12932-1.4226-.38796zm-9.699-26.76931q.5173-1.16388-2.0691-9.18174-2.5864-8.01786-3.4917-7.88854-.6466 0-1.0345 1.93981-.5173 2.19844-1.6812 2.71572-1.1639.51729-1.1639 2.06913 0 2.32776-1.2932 3.75029-1.5518 1.68116-1.5518 2.84504 0 .90525-1.2932 2.19845-.9053 1.03456-.9053 1.42252.1294.25864.9053.77593 1.1639.77592 7.1126.51728 5.9487-.25864 6.466-1.16389z"/><path d="m2665.846 940.57015-6.7246-1.03456-6.0781-6.07805q-6.2073-6.20738-8.5351-10.99223-1.6812-3.49165-2.0691-5.81941-.388-2.45709-.388-10.73359 0-8.79378.7759-13.70795.7759-5.04349 3.1037-9.82834 1.5519-3.23301 5.4315-8.79379 4.0089-5.56077 5.6901-6.72465 2.5864-2.06913 3.1036-2.58641.1294-.12932 6.3367-2.97436 3.3624-1.42253 5.0435-1.68117 1.8105-.38796 4.9142 0 9.5697.90524 9.5697 5.81941 0 2.19845-1.6812 3.36233-1.6811 1.03457-3.8796 1.03457-1.4225 0-3.4916-2.06913-1.1639-1.16388-3.3623-2.32777-2.1985-1.2932-3.4917-1.16388-3.233.38796-6.9833 3.36233-3.621 2.97437-5.8194 8.01786-.7759 1.55184-1.5518 4.91417-.6466 3.36233-.9053 3.62097-.3879.51728-.9052 13.06135-.6466 11.50951 1.4225 19.13941 2.1984 7.50057 7.8885 13.70795 2.9744 3.23301 4.6556 4.26757 1.6811.90524 4.5262.90524l7.6299-.90524 7.8885-6.20738q1.6812 0 2.0691 1.93981.388 1.68116-.7759 1.68116-1.0345 0-4.6555 4.13825-3.621 3.87961-7.1126 4.91417-3.1037.77593-4.009.77593-.9052 0-7.6299-1.03457z"/><path d="m2699.0813 925.69832q-1.2932-1.55184-1.5518-3.62097-.1293-2.19845.2586-11.12155l.6466-12.54407-2.1984-.77592q-2.1985-1.03456-2.1985-3.23301 0-1.2932 1.1639-1.2932 1.6812 0 1.9398.12932.776.12932 1.1639-2.5864.388-2.84505.5173-7.88854.1293-5.17282 1.6812-9.31107 1.5518-4.26757 3.3623-4.26757 1.6812 0 1.9398-.6466 1.0346-1.2932 12.932.12932.6466 0 4.009.12932 3.3623.12932 5.1728.25864 5.3021.51728 7.2419 1.93981 1.9398 1.2932.9052 3.62097-.7759 1.55184-1.5518 1.9398-.7759.25864-4.1382-.12932-2.9744-.25864-5.9488-1.2932-3.4916-1.16388-8.1472-1.16388l-6.3367-.51729.2587 5.0435q0 .90524-.5173 4.26757-.388 3.233-.5173 4.78485l-.3879 5.56077 4.7848-.6466q12.932-1.42252 13.32.90524.1293 1.42253-1.2932 1.42253-1.6812 0-2.3278.6466-.7759.77592-5.9487 1.68116-5.0435.90524-6.5953.51728-1.2932-.38796-1.6812 1.42253-.5173 1.9398-1.4225 14.09591-.2587 2.84505-.1293 4.91417.1293 1.93981.3879 2.97437.388 1.03456.7759 1.03456 3.3624 0 10.9923-2.32777 7.7592-2.32776 10.4749-3.62096 2.4571-1.16389 3.233-1.29321.9053-.12932 2.7157.51728 4.5263 1.81049-.5172 4.78486-.9053.51728-1.9398 1.03456-10.2163 5.17281-20.174 5.30213-5.4315.12932-9.699.90524-1.9398.38796-2.7158.12932-.7759-.38796-1.9398-1.81048z"/><path d="m2784.3034 925.18104q-.6466-1.29321-1.6811-5.43146-1.1639-4.78485-2.8451-9.95766l-1.6811-5.30213-10.7336.51728q-7.3713.38796-9.4404.77592-1.9398.25864-2.9744 1.42252-1.6811 1.29321-1.6811 3.23301 0 1.68117-.6467 1.93981-.9052.38796-2.9743 4.91417-3.621 6.9833-6.3367 8.14718-1.1639.51728-1.1639-1.16388 0-.77593.2586-2.06913.388-1.42252 1.4226-4.00893 6.3367-13.44931 5.1728-14.61319-1.2932-1.29321-1.2932-2.58641-.1293-1.2932.3879-1.55184.6466-.38796 2.7158-.38796 3.1037 0 3.233-1.55185.2586-1.81048 3.4916-7.75922 3.3623-6.20737 3.3623-6.85397 0-1.03457.9053-1.93981 1.2932-1.2932 2.4571-5.43145 1.4225-4.52621 2.9743-6.72466 1.5519-2.19844 3.2331-2.06912 2.1984.12932 4.6555 2.45708 2.5864 2.19845 2.7157 4.13825.388 3.36233 2.3278 7.50058 1.6811 3.62097 3.8796 10.08699 3.4916 8.9231 5.9487 13.31999 1.0346 1.9398 2.5864 7.75922 1.6812 5.81941 1.5519 7.75921 0 1.68117-.6466 2.45709-.5173.77592-2.4571 1.42252-4.2676 1.68117-5.3022 1.93981-1.0345.12932-1.4225-.38796zm-9.699-26.76931q.5173-1.16388-2.0691-9.18174-2.5864-8.01786-3.4917-7.88854-.6466 0-1.0345 1.93981-.5173 2.19844-1.6812 2.71572-1.1639.51729-1.1639 2.06913 0 2.32776-1.2932 3.75029-1.5518 1.68116-1.5518 2.84504 0 .90525-1.2932 2.19845-.9053 1.03456-.9053 1.42252.1293.25864.9053.77593 1.1639.77592 7.1126.51728 5.9487-.25864 6.466-1.16389z"/><path d="m2821.1597 871.25447 2.0691 3.36233q3.4917 4.52621 13.8373 25.99338 4.7849 9.82834 5.5608 9.95766.2586 0 .2586-.77592 0-1.9398.5173-5.69009.5173-3.75029.5173-5.56078 0-3.36232.388-9.69902.5172-6.33669.5172-9.5697 0-15.00116 4.009-15.00116 1.0345 0 1.5518.6466.6466.64661.7759 1.81049.1293 1.03456.1293 2.19844 0 1.03457-.1293 2.32777 0 1.2932 0 1.81048.2587 6.59534-1.4225 18.75145-1.6812 12.15611-1.9398 16.42368v14.22523q0 1.68117-1.2932 5.04349-1.1639 3.23301-2.5864 3.23301-1.2932 0-2.0691-1.16388-.776-1.29321-1.4226-3.36233-.6466-2.19845-.9052-2.71573-3.4916-7.11261-15.0012-27.15726-.3879-.6466-2.5864-6.20738-2.1984-5.69009-2.5864-6.20737-2.3277-3.23301-2.5864-.51728-.1293.77592-.1293 3.23301v3.62096q-.388 1.29321-.2586 1.55185.2586 1.03456.2586 6.85397 0 3.62097.2586 7.11262.2587 3.49165 0 6.20738-.1293 1.16388-.5172 3.49164-.2587 2.19845-.2587 2.32777-.5173 5.04349-.7759 7.75922-.5173 6.33669-1.2932 9.05242-.9052 3.36233-.5173 5.56077.5173 2.84505-1.4225 4.52621-1.0346.77593-1.8105 0-.6466-.6466-3.233-2.71572-2.0691-1.81049-1.6812-3.62097.776-3.10369.9053-4.65553.3879-4.52621 1.0345-7.6299 1.0346-5.17281 1.2932-10.34562.1294-1.81049.5173-6.3367.388-4.52621.5173-5.56077.5173-5.56078.388-15.38912 0-9.95766-.5173-13.96659-.388-3.75029-1.9398-5.30214-1.1639-1.16388-2.5864-4.00893-1.4225-2.84504-1.8105-4.65553-.1293-1.03456.6466-1.55184.9052-.6466 3.8796-1.42252l4.7849-1.16389 1.9398 2.32777q2.1984 2.45708 2.1984 3.75029 0 1.81048 1.0346 2.5864 1.2932 1.03457 1.2932 1.93981 0 1.2932 2.1984 4.26757z"/><path d="m2878.578 941.4754q-.5173 0-2.3278-.38796-1.6812-.38797-2.4571-.51729-2.4571-.38796-6.854-4.00893-4.3969-3.62096-5.4314-6.07805-.6466-1.42252-.5173-2.06912.1293-.77593 1.0346-1.68117 1.5518-1.42252 3.7502-.6466 2.1985.6466 3.7503 3.23301 1.9398 2.71572 4.6556 5.17281 3.1037 2.58641 6.9833 2.58641 4.1382 0 4.5262-.77593.3879-.90524 2.0691-.90524 1.5518 0 1.5518-.77592 0-.90524 1.0346-.90524.9052 0 2.3278-1.55185 1.4225-1.68116 1.4225-2.71572 0-1.16389 1.8105-3.87961l.6466-3.36233-1.2932-5.43145q-.6466-1.81049-1.1639-2.71573-.5173-.90524-1.0346-1.42252-.3879-.51728-2.4571-2.19845-1.9398-1.81048-3.7502-3.49165-8.0179-7.50057-10.9923-9.31106-2.7157-1.68116-5.3021-4.78485-.5173-.51728-1.9398-2.71573-1.4225-2.19844-2.0691-2.84504-2.7158-2.84505-1.9398-11.76815.6466-6.72466 4.3969-10.60427 3.8796-3.87961 12.2854-5.30213 10.3456-1.68116 15.1305 1.2932 1.2932.90525 1.4225 2.97437.2586 2.06913-.7759 2.97437-.9053.77592-1.6812.77592-.7759-.12932-3.233-1.03456-4.1383-1.68117-9.699-1.03456-8.2765 1.03456-8.2765 7.62989 0 3.87961 1.4225 6.59534 1.4225 2.71573 5.1728 5.56077 4.0089 2.97437 6.5953 5.30214 2.1985 1.9398 3.7503 2.71572 3.3624 1.81049 8.1472 8.53514 4.9142 6.72466 4.9142 9.5697 0 1.68117 1.0345 3.23301.9053 1.55185-1.2932 8.66446-2.1984 6.72466-5.9487 10.73359-4.0089 4.13825-9.3111 6.07805-5.3021 2.06913-10.0869 1.29321z"/><path d="m2951.1267 942.63928q-.6466-2.06913-.9053-35.17512-.2586-29.22639-1.0345-40.0893-.5173-4.13825-.2587-7.6299.388-3.49165 1.2932-4.39689.388-.38796 4.0089-.6466l3.621-.12932.388 6.33669q1.5518 15.51844 1.5518 27.80387 0 6.20738 1.0346 6.72466 1.1639.51728 4.5262-4.13825 5.6901-7.37126 6.466-8.14718 3.1037-3.36233 5.5608-7.11262 2.5864-4.00893 4.7848-6.59534 3.3624-3.8796 4.2676-5.30213.9052-1.42252 1.2932-1.55184.5173-.12932 1.4225.90524 1.0346 1.03456 1.0346 1.81048.1293.77593-.6466 3.49165-1.5519 5.17282-15.1305 18.62213-7.8885 7.88854-7.8885 10.99222 0 1.81049 2.5864 4.13825 2.845 2.58641 3.8796 4.65553 1.1639 2.19845 3.7503 4.13825 2.845 2.06913 4.3969 3.62097 1.9398 1.93981 3.8796 1.93981 2.0691 0 2.5864.90524.3879.90524 5.9487.6466 3.7503-.12932 4.6556.12932 1.0345.25864 1.1638 1.2932.388 2.45709-1.9398 4.78486-2.1984 2.32776-6.3367 2.32776-4.0089 0-4.3969-.77592-.2586-.38796-1.4225-1.2932-1.1639-.90525-2.0691-1.03457-1.8105-.38796-7.1126-5.43145-5.3022-5.17281-10.087-11.25087-4.2676-5.17281-5.1728-5.17281-.9053 0-1.0346 9.05242 0 9.05243.7759 17.32893 1.0346 11.25086-2.457 14.09591-1.9398 1.42252-4.1383 1.42252-2.1984.12932-2.845-1.2932z"/><path d="m3005.8291 925.69832q-1.2932-1.55184-1.5518-3.62097-.1293-2.19845.2586-11.12155l.6466-12.54407-2.1984-.77592q-2.1985-1.03456-2.1985-3.23301 0-1.2932 1.1639-1.2932 1.6812 0 1.9398.12932.776.12932 1.1639-2.5864.388-2.84505.5173-7.88854.1293-5.17282 1.6812-9.31107 1.5518-4.26757 3.3623-4.26757 1.6812 0 1.9398-.6466 1.0346-1.2932 12.932.12932.6466 0 4.009.12932 3.3623.12932 5.1728.25864 5.3021.51728 7.2419 1.93981 1.9398 1.2932.9052 3.62097-.7759 1.55184-1.5518 1.9398-.7759.25864-4.1382-.12932-2.9744-.25864-5.9488-1.2932-3.4916-1.16388-8.1472-1.16388l-6.3367-.51729.2587 5.0435q0 .90524-.5173 4.26757-.388 3.233-.5173 4.78485l-.3879 5.56077 4.7848-.6466q12.932-1.42252 13.32.90524.1293 1.42253-1.2932 1.42253-1.6812 0-2.3278.6466-.7759.77592-5.9487 1.68116-5.0435.90524-6.5953.51728-1.2932-.38796-1.6812 1.42253-.5173 1.9398-1.4225 14.09591-.2587 2.84505-.1293 4.91417.1293 1.93981.3879 2.97437.388 1.03456.7759 1.03456 3.3624 0 10.9923-2.32777 7.7592-2.32776 10.4749-3.62096 2.4571-1.16389 3.233-1.29321.9053-.12932 2.7157.51728 4.5263 1.81049-.5172 4.78486-.9053.51728-1.9398 1.03456-10.2163 5.17281-20.174 5.30213-5.4315.12932-9.699.90524-1.9398.38796-2.7158.12932-.7759-.38796-1.9398-1.81048z"/><path d="m3070.1013 871.25447 2.0692 3.36233q3.4916 4.52621 13.8372 25.99338 4.7849 9.82834 5.5608 9.95766.2586 0 .2586-.77592 0-1.9398.5173-5.69009.5173-3.75029.5173-5.56078 0-3.36232.388-9.69902.5173-6.33669.5173-9.5697 0-15.00116 4.0089-15.00116 1.0345 0 1.5518.6466.6466.64661.7759 1.81049.1294 1.03456.1294 2.19844 0 1.03457-.1294 2.32777 0 1.2932 0 1.81048.2587 6.59534-1.4225 18.75145-1.6811 12.15611-1.9398 16.42368v14.22523q0 1.68117-1.2932 5.04349-1.1639 3.23301-2.5864 3.23301-1.2932 0-2.0691-1.16388-.7759-1.29321-1.4225-3.36233-.6466-2.19845-.9053-2.71573-3.4916-7.11261-15.0011-27.15726-.388-.6466-2.5864-6.20738-2.1985-5.69009-2.5864-6.20737-2.3278-3.23301-2.5865-.51728-.1293.77592-.1293 3.23301v3.62096q-.3879 1.29321-.2586 1.55185.2586 1.03456.2586 6.85397 0 3.62097.2587 7.11262.2586 3.49165 0 6.20738-.1294 1.16388-.5173 3.49164-.2587 2.19845-.2587 2.32777-.5172 5.04349-.7759 7.75922-.5173 6.33669-1.2932 9.05242-.9052 3.36233-.5173 5.56077.5173 2.84505-1.4225 4.52621-1.0345.77593-1.8105 0-.6466-.6466-3.233-2.71572-2.0691-1.81049-1.6811-3.62097.7759-3.10369.9052-4.65553.388-4.52621 1.0346-7.6299 1.0345-5.17281 1.2932-10.34562.1293-1.81049.5172-6.3367.388-4.52621.5173-5.56077.5173-5.56078.388-15.38912 0-9.95766-.5173-13.96659-.388-3.75029-1.9398-5.30214-1.1639-1.16388-2.5864-4.00893-1.4225-2.84504-1.8105-4.65553-.1293-1.03456.6466-1.55184.9053-.6466 3.8796-1.42252l4.7849-1.16389 1.9398 2.32777q2.1984 2.45708 2.1984 3.75029 0 1.81048 1.0346 2.5864 1.2932 1.03457 1.2932 1.93981 0 1.2932 2.1984 4.26757z"/><path d="m3117.1739 933.1989q-1.1639-.51728-1.0345-1.68117.1293-1.16388 1.4225-2.06912 6.7246-4.91417 11.6388-15.13048 4.2676-8.79378 2.8451-10.2163-1.4226-1.42253-1.4226-2.19845 0-.90524-2.7157-4.26757-2.4571-2.97437-5.9487-9.31106-1.8105-2.84505-5.8194-7.6299-3.621-4.39689-4.5263-6.46601-1.1638-2.58641-1.6811-3.23301-.9053-1.2932-.6466-3.62097.1293-1.93981 1.1639-2.32777 1.1638-.38796 5.0435.12932.6466.12932 1.2932.25864.7759 0 1.2932 0 .5172 0 .9052.12933.5173 0 .7759.12932.388 0 .6466.12932.388 0 .5173.12932.1293 0 .2586.12932.1294.12932.1294.25864.1293.12932.1293.38796 0 1.16388 1.2932 3.23301.1293.12932 5.6901 10.99222 1.1639 2.19845 2.1984 3.49165 1.1639 1.2932 1.6812 2.19845 2.845 5.17281 3.233 6.07805 1.6812 4.26757 1.9398 4.26757 1.0346 0 2.1985-3.10369 1.2932-3.233 1.6811-6.07805.2587-2.58641.6466-2.97437 1.0346-1.2932 3.1037-10.34562 2.0691-9.05243 2.0691-11.50951 0-.77592 2.0692-.90524 2.0691-.12932 3.3623.25864 4.7848 1.16388 2.845 3.10368-.9052.90525-.9052 2.45709 0 1.93981-3.621 9.5697-.2586.64661-.5173 1.03457-.2586.25864-.3879.38796-.1293.12932-.2587.51728-.1293.25864-.5172 1.03456-.2587.6466-.6466 1.93981-3.1037 9.44038-3.621 10.47494-.2587.6466-.5173 2.32777-.2586 1.55184-.6466 1.81048-.6466.51728-2.3278 4.26757-1.5518 3.62097-1.8104 3.75029-.5173.38796-.9053 1.2932-.388.90524-1.8105 4.52621-1.2932 3.49165-3.1037 7.75922-1.2932 2.97437-2.457 5.6901-1.0346 2.71572-1.4226 3.62096-.3879.77593-.9052 1.81049-.5173 1.03456-.9053 1.55184-.2586.38796-1.1638 1.42253-2.9744 3.36232-9.8284.51728z"/><path d="m3197.4818 925.18104q-.6466-1.29321-1.6811-5.43146-1.1639-4.78485-2.8451-9.95766l-1.6811-5.30213-10.7336.51728q-7.3713.38796-9.4404.77592-1.9398.25864-2.9744 1.42252-1.6811 1.29321-1.6811 3.23301 0 1.68117-.6466 1.93981-.9053.38796-2.9744 4.91417-3.621 6.9833-6.3367 8.14718-1.1639.51728-1.1639-1.16388 0-.77593.2587-2.06913.3879-1.42252 1.4225-4.00893 6.3367-13.44931 5.1728-14.61319-1.2932-1.29321-1.2932-2.58641-.1293-1.2932.3879-1.55184.6466-.38796 2.7158-.38796 3.1037 0 3.233-1.55185.2586-1.81048 3.4916-7.75922 3.3624-6.20737 3.3624-6.85397 0-1.03457.9052-1.93981 1.2932-1.2932 2.4571-5.43145 1.4225-4.52621 2.9744-6.72466 1.5518-2.19844 3.233-2.06912 2.1984.12932 4.6555 2.45708 2.5864 2.19845 2.7157 4.13825.388 3.36233 2.3278 7.50058 1.6811 3.62097 3.8796 10.08699 3.4916 8.9231 5.9487 13.31999 1.0346 1.9398 2.5864 7.75922 1.6812 5.81941 1.5519 7.75921 0 1.68117-.6466 2.45709-.5173.77592-2.4571 1.42252-4.2676 1.68117-5.3021 1.93981-1.0346.12932-1.4226-.38796zm-9.699-26.76931q.5173-1.16388-2.0691-9.18174-2.5864-8.01786-3.4917-7.88854-.6466 0-1.0345 1.93981-.5173 2.19844-1.6812 2.71572-1.1639.51729-1.1639 2.06913 0 2.32776-1.2932 3.75029-1.5518 1.68116-1.5518 2.84504 0 .90525-1.2932 2.19845-.9053 1.03456-.9053 1.42252.1294.25864.9053.77593 1.1639.77592 7.1126.51728 5.9487-.25864 6.466-1.16389z"/></g></g></svg>