<?xml version="1.0" encoding="UTF-8" standalone="no"?>
<svg
   height="61.111076"
   viewBox="0 0 101.08976 61.111076"
   width="101.08976"
   version="1.1"
   id="svg920"
   sodipodi:docname="shells.svg"
   inkscape:version="1.2.2 (b0a8486541, 2022-12-01)"
   xmlns:inkscape="http://www.inkscape.org/namespaces/inkscape"
   xmlns:sodipodi="http://sodipodi.sourceforge.net/DTD/sodipodi-0.dtd"
   xmlns="http://www.w3.org/2000/svg"
   xmlns:svg="http://www.w3.org/2000/svg">
  <defs
     id="defs924" />
  <sodipodi:namedview
     id="namedview922"
     pagecolor="#ffffff"
     bordercolor="#000000"
     borderopacity="0.25"
     inkscape:showpageshadow="2"
     inkscape:pageopacity="0.0"
     inkscape:pagecheckerboard="0"
     inkscape:deskcolor="#d1d1d1"
     showgrid="false"
     inkscape:zoom="0.4296875"
     inkscape:cx="578.32727"
     inkscape:cy="422.4"
     inkscape:window-width="1920"
     inkscape:window-height="1000"
     inkscape:window-x="0"
     inkscape:window-y="0"
     inkscape:window-maximized="1"
     inkscape:current-layer="svg920" />
  <g
     fill-rule="evenodd"
     opacity="0.259044"
     transform="matrix(0.99266561,0,0,0.99266561,-1212.2613,-101.5603)"
     id="g70">
    <g
       id="g38">
      <path
         d="m 1285.1569,103.573 c 0,0 10.0844,-1.68034 15.7873,1.25511 5.703,2.93546 14.1638,4.48544 17.8309,7.28145 3.667,2.796 -1.8638,4.24935 -0.747,7.73074 1.1168,3.4814 5.7266,5.61648 3.7999,10.47792 -1.9268,4.86145 -5.6568,9.51181 -12.018,16.54938 -6.3613,7.03757 -7.3204,8.96577 -12.4121,11.03292 -5.0916,2.06716 -8.0017,6.00998 -10.6389,4.13735 -2.6371,-1.87263 -7.465,-7.79062 -12.215,-11.42695 -4.75,-3.63634 -7.5453,-10.49188 -8.6687,-14.57922 -1.1234,-4.08734 -0.3358,-3.27719 0,-8.47171 0.3357,-5.19451 5.4514,-12.71889 8.6687,-16.94341 3.2174,-4.22452 7.4765,-6.91623 10.7268,-7.06957"
         fill="#f39192"
         stroke-width="1.5665"
         id="path34" />
      <path
         d="m 1290.8984,102.31641 c -3.1788,0.0522 -5.491,0.43852 -5.664,0.46679 v -0.0195 c -0.048,0.002 -0.1018,0.03 -0.1504,0.0332 -5e-4,7e-5 -0.057,0.004 -0.057,0.004 v 0.008 c -3.6072,0.26344 -7.8473,3.05079 -11.1094,7.33399 -1.6232,2.13138 -3.7223,5.09041 -5.4726,8.19726 -1.7503,3.10686 -3.1708,6.34144 -3.3535,9.16993 -0.1652,2.5553 -0.4372,3.57314 -0.545,4.62109 -0.1077,1.04795 -3e-4,2.03336 0.5703,4.10937 1.1521,4.19169 3.9397,11.15718 8.9493,14.99219 2.3138,1.77136 4.6901,4.13877 6.8164,6.30274 2.1262,2.16396 3.9677,4.10944 5.4199,5.14062 0.8205,0.58265 1.7767,0.73572 2.6601,0.56641 0.8835,-0.16931 1.7168,-0.60001 2.5938,-1.12305 1.7541,-1.04607 3.7016,-2.50433 6.1348,-3.49219 2.6086,-1.05905 4.255,-2.14386 5.9804,-3.8164 1.7255,-1.67255 3.5469,-3.91106 6.7168,-7.41797 6.3742,-7.05191 10.1747,-11.76088 12.166,-16.78516 1.0567,-2.66614 0.2783,-4.80933 -0.8359,-6.48047 -1.1142,-1.67113 -2.4704,-3.03881 -2.9473,-4.52539 -0.2169,-0.6762 -0.1213,-1.16982 0.1289,-1.7207 0.2503,-0.55088 0.6865,-1.1134 1.1016,-1.7207 0.4151,-0.60731 0.85,-1.29631 0.8281,-2.17188 -0.022,-0.87557 -0.5637,-1.72555 -1.582,-2.50195 -2.009,-1.53179 -5.0813,-2.60001 -8.377,-3.70703 -3.2956,-1.10702 -6.809,-2.22717 -9.5703,-3.64844 -3.0725,-1.58153 -7.1092,-1.86861 -10.4043,-1.81445 z m 0.027,1.5664 c 3.1728,-0.0522 7.0298,0.28867 9.6601,1.64258 2.9418,1.51419 6.5099,2.63745 9.7871,3.73828 3.2773,1.10084 6.2697,2.20454 7.9278,3.46875 0.8152,0.6216 0.9575,1.00282 0.9648,1.29492 0.01,0.2921 -0.1851,0.70734 -0.5547,1.24805 -0.3696,0.54071 -0.8763,1.16889 -1.2343,1.95703 -0.3581,0.78814 -0.5349,1.78317 -0.1934,2.84766 0.6399,1.99482 2.1466,3.4339 3.1348,4.91601 0.9882,1.48212 1.5517,2.83791 0.6816,5.03321 -1.8623,4.69861 -5.5229,9.28928 -11.8711,16.3125 -3.1914,3.53065 -5.0291,5.77601 -6.6465,7.34375 -1.6173,1.56773 -2.9954,2.48019 -5.4785,3.48828 -2.6584,1.0793 -4.7125,2.62564 -6.3457,3.59961 -0.8166,0.48698 -1.5249,0.8218 -2.0879,0.92968 -0.563,0.10789 -0.9589,0.049 -1.457,-0.30468 -1.185,-0.84145 -3.0765,-2.78867 -5.2109,-4.96094 -2.1345,-2.17227 -4.5463,-4.58425 -6.9825,-6.44922 -4.4904,-3.43766 -7.2939,-10.18107 -8.3886,-14.16406 -0.5528,-2.01132 -0.6126,-2.66577 -0.5235,-3.5332 0.089,-0.86744 0.3782,-2.04048 0.5489,-4.67969 0.1529,-2.36602 1.4585,-5.49187 3.1542,-8.50195 1.6958,-3.01009 3.7634,-5.92445 5.3575,-8.01758 3.1043,-4.076 7.2643,-6.60875 10.1152,-6.75586 v 0.01 c 0,0 2.4677,-0.41074 5.6406,-0.46289 z"
         fill="#c03a31"
         id="path36" />
    </g>
    <g
       id="g44">
      <path
         d="m 1270.0613,117.03048 c 0,0 -6.7811,-4.39713 -10.3161,-8.11596 -3.5349,-3.71883 -13.9656,0.12593 -13.9656,0.12593 0,0 -10.4778,3.56015 -14.7762,8.27469 -4.2985,4.71454 -7.4551,14.58095 -8.6687,19.50463 -1.2137,4.92367 1.2887,8.59281 1.2887,8.59281 2.4845,4.08202 3.5064,8.4866 6.4653,11.23019 2.9589,2.74358 6.3539,5.91724 8.5579,4.3396 l 3.0558,-2.18742 c 2.1114,-1.5113 2.0306,1.42623 4.4478,4.27321 4.6091,0.0288 13.641,0.28846 18.1138,-2.20715 4.4727,-2.4956 9.886,-10.25009 9.886,-10.25009"
         fill="#f39192"
         stroke-width="1.5665"
         id="path40" />
      <path
         d="m 1256.1582,106.58594 c -1.5835,-0.17447 -3.2787,-0.0307 -4.8477,0.22461 -3.1272,0.50898 -5.7651,1.48162 -5.7832,1.48828 0,0 -0.01,0.002 -0.01,0.002 -0.01,0.002 -2.6545,0.90307 -5.8496,2.40039 -3.1982,1.49878 -6.9515,3.56706 -9.2481,6.08594 -4.5364,4.9755 -7.6186,14.85168 -8.8496,19.8457 -1.2952,5.25438 1.4024,9.22071 1.4024,9.22071 l -0.022,-0.0332 c 2.404,3.94975 3.4021,8.42986 6.6015,11.39649 1.4786,1.37096 3.0817,2.87564 4.6778,3.8789 0.798,0.50163 1.5979,0.88575 2.4258,1.03125 0.8278,0.14551 1.7119,0.0143 2.4414,-0.50781 l 3.0566,-2.1875 c 0.4321,-0.3093 0.5301,-0.26855 0.5449,-0.26367 0.015,0.005 0.1986,0.13736 0.4395,0.53515 0.4818,0.79559 1.1127,2.34301 2.4101,3.8711 l 0.2325,0.27539 0.3593,0.002 c 2.2931,0.0143 5.7284,0.0887 9.17,-0.1582 3.4415,-0.24691 6.8896,-0.7857 9.332,-2.14844 2.4204,-1.35048 4.8959,-3.95752 6.834,-6.23828 1.938,-2.28076 3.3125,-4.24805 3.3125,-4.24805 l -1.2852,-0.89648 c 0,0 -1.3339,1.91047 -3.2207,4.13086 -1.8868,2.22038 -4.352,4.73965 -6.4043,5.88476 -2.0304,1.13288 -5.3348,1.71316 -8.6797,1.95313 -3.1896,0.22883 -6.3279,0.1645 -8.6289,0.14648 -0.9541,-1.21883 -1.5288,-2.45721 -2.0918,-3.38672 -0.3049,-0.50355 -0.6497,-1.00111 -1.289,-1.21093 -0.6394,-0.20982 -1.3237,0.0322 -1.9473,0.47851 l -3.0547,2.1875 c -0.3725,0.26667 -0.7387,0.32987 -1.2598,0.23828 -0.521,-0.0916 -1.1672,-0.37692 -1.8632,-0.81445 -1.3922,-0.87505 -2.967,-2.32855 -4.4473,-3.70117 -2.7184,-2.52055 -3.7631,-6.84821 -6.3281,-11.0625 l -0.012,-0.0176 -0.012,-0.0176 c 0,0 -2.306,-3.36993 -1.1738,-7.96289 1.1963,-4.85332 4.4258,-14.71049 8.4863,-19.16406 2.0019,-2.19566 5.6386,-4.26468 8.7539,-5.72461 3.1153,-1.45993 5.6954,-2.33789 5.6954,-2.33789 l 0.01,-0.002 0.01,-0.004 c 0,0 2.5505,-0.93797 5.5117,-1.41992 1.4806,-0.24098 3.0574,-0.3615 4.4238,-0.21094 1.3665,0.15056 2.4867,0.56911 3.1914,1.31055 3.6672,3.8579 10.4571,8.23242 10.4571,8.23242 l 0.8535,-1.31445 c 0,0 -6.773,-4.4183 -10.1758,-7.99805 -1.0627,-1.11797 -2.5708,-1.61459 -4.1543,-1.78906 z"
         fill="#c03a31"
         id="path42" />
    </g>
    <g
       fill="#c03a31"
       id="g68">
      <path
         d="m 1286.168,124.21071 c -0.4882,-0.0319 -6.3103,3.76049 -4.7462,7.41529 1.5642,3.65479 2.2106,6.13288 4.715,6.3459 2.5044,0.21302 10.4868,-4.19914 6.5672,-9.63733 -3.9196,-5.4382 -7.1565,-3.95182 -7.1565,-3.95182"
         id="path46" />
      <path
         d="m 1301.5104,110.43547 c -3.9216,0.60133 -5.3275,0.95052 -3.7601,2.78186 1.1529,1.34695 -3.1487,-0.27755 -3.1487,-2.29275 0,-1.63768 -0.2421,-2.56617 1.1311,-3.08756 2.0155,-0.76523 7.6572,2.31024 5.7777,2.59845 z"
         id="path48" />
      <path
         d="m 1316.7343,132.59865 c -1.5897,1.47933 -1.881,6.08866 -4.4021,6.17512 -2.9549,0.18342 -4.21,-3.32484 -4.5244,-4.70777 -0.7948,-3.49695 4.6728,-8.21259 5.1969,-7.15336 0.9984,2.01762 5.8695,3.35071 3.7296,5.68601 z"
         id="path50" />
      <path
         d="m 1269.5304,137.51928 a 2.4846603,0.93861044 61.569827 0 1 0.285,2.56763 2.4846603,0.93861044 61.569827 0 1 -2.0198,-1.83171 2.4846603,0.93861044 61.569827 0 1 -0.2851,-2.56762 2.4846603,0.93861044 61.569827 0 1 2.0199,1.8317 z"
         id="path52" />
      <path
         d="m 1290.9003,154.1481 c -0.7834,1.22581 -3.1714,1.34411 -6.4864,-0.81755 -3.3149,-2.16166 -3.5726,-4.41849 -3.23,-5.78089 0.4412,-1.75478 3.6781,-2.17079 7.0366,0.0228 3.3584,2.19353 4.5557,3.64039 2.6798,6.57568 z"
         id="path54" />
      <path
         d="m 1280.4828,120.09665 c -1.6845,2.51732 -9.4338,6.80641 -11.3851,6.80641 -0.9862,0 0.5661,-2.3018 2.1858,-4.99059 1.0507,-2.83627 3.2182,-5.63571 4.0176,-6.90258 1.8076,-2.86462 8.1548,-7.9904 10.1061,-7.99039 1.0238,0 0.4079,5.6574 -0.3707,7.61772 -2.1919,1.3601 -3.6164,4.05884 -4.5537,5.45943 z"
         id="path56" />
      <path
         d="m 1266.0272,126.00506 c -7.552,0.0575 -23.3295,-11.59846 -20.1194,-13.06052 3.2101,-1.46206 4.9635,-0.81338 9.5058,-2.06614 3.205,-0.78464 6.1642,4.01902 9.1406,5.90672 1.5063,0.95537 3.4671,2.03576 3.9116,2.98354 -0.9103,2.34323 -1.5577,2.63003 -2.4386,6.2364 z"
         id="path58" />
      <path
         d="m 1263.5351,144.90789 c -0.6102,0.59109 -4.004,3.21628 -4.4574,3.46984 -0.5899,10e-6 -3.1438,-0.61844 -3.2407,-2.34007 -0.1168,-2.07474 3.2311,-4.68374 3.936,-4.33888 0.5899,1e-5 5.0007,2.00939 3.7621,3.20911 z"
         id="path60" />
      <path
         d="m 1240.1169,139.76557 c 0.1484,1.85457 1.1934,5.57096 -0.2211,4.75919 -0.9338,-0.53589 -8.3113,-1.28403 -9.4331,-1.67406 -0.9995,-1.44858 -0.3692,-8.97008 2.0896,-8.32229 1.9988,0.5266 7.482,4.20342 7.5646,5.23716 z"
         id="path62" />
      <path
         d="m 1266.8857,155.63812 c 0,0.72604 -1.3105,3.22653 -1.855,3.22653 -0.5446,10e-6 -1.8551,0.10667 -1.8551,-0.61937 0,-0.72605 1.3105,-2.00986 1.8551,-2.00986 0.5445,1e-5 1.855,-1.32333 1.855,-0.5973 z"
         id="path64" />
      <path
         d="m 1235.5311,120.98503 c 0,2.08813 1.0451,3.04911 -0.9757,3.04911 -2.0207,0 -3.415,0.0147 -3.415,-2.07339 0,-2.08814 1.6382,-4.26876 3.659,-4.26876 2.0207,0 0.7317,1.20491 0.7317,3.29304 z"
         id="path66" />
    </g>
  </g>
</svg>
